<?xml version="1.0" encoding="UTF-8"?>
<!-- Generated by Pixelmator Pro 3.6.18 -->
<svg width="48" height="48" viewBox="0 0 48 48" xmlns="http://www.w3.org/2000/svg">
    <g id="New">
        <path id="Area" fill="#000000" fill-rule="evenodd" stroke="none" d="M 41.379311 41.615761 L 41.379311 39.00602 L 37.517239 39.00602 L 37.517239 41.615761 Z M 34.942528 41.615761 L 34.942528 39.00602 L 31.080462 39.00602 L 31.080462 41.615761 Z M 28.505745 41.615761 L 28.505745 39.00602 L 24.643679 39.00602 L 24.643679 41.615761 Z M 22.068966 41.615761 L 22.068966 39.00602 L 18.206898 39.00602 L 18.206898 41.615761 Z M 15.632186 41.615761 L 15.632186 39.00602 L 11.770114 39.00602 L 11.770114 41.615761 Z M 9.195402 37.701149 L 6.62069 37.701149 L 6.62069 41.615761 L 9.195402 41.615761 Z M 9.195402 31.176794 L 6.62069 31.176794 L 6.62069 35.091408 L 9.195402 35.091408 Z M 9.195402 24.652437 L 6.62069 24.652437 L 6.62069 28.567049 L 9.195402 28.567049 Z M 9.195402 18.128078 L 6.62069 18.128078 L 6.62069 22.042694 L 9.195402 22.042694 Z M 9.195402 11.603718 L 6.62069 11.603718 L 6.62069 15.518337 L 9.195402 15.518337 Z M 10.482759 8.99398 L 10.482759 6.384239 L 6.62069 6.384239 L 6.62069 8.99398 Z M 16.91954 8.99398 L 16.91954 6.384239 L 13.057471 6.384239 L 13.057471 8.99398 Z M 23.356321 8.99398 L 23.356321 6.384239 L 19.494255 6.384239 L 19.494255 8.99398 Z M 29.793104 8.99398 L 29.793104 6.384239 L 25.931034 6.384239 L 25.931034 8.99398 Z M 36.229885 8.99398 L 36.229885 6.384239 L 32.367813 6.384239 L 32.367813 8.99398 Z M 38.8046 10.298851 L 41.379311 10.298851 L 41.379311 6.384239 L 38.8046 6.384239 Z M 38.8046 16.823206 L 41.379311 16.823206 L 41.379311 12.908592 L 38.8046 12.908592 Z M 38.8046 23.347563 L 41.379311 23.347563 L 41.379311 19.432951 L 38.8046 19.432951 Z M 38.8046 29.871922 L 41.379311 29.871922 L 41.379311 25.957306 L 38.8046 25.957306 Z M 38.8046 36.396282 L 41.379311 36.396282 L 41.379311 32.481663 L 38.8046 32.481663 Z M 32.378536 36.962341 L 38.8046 33.786942 L 32.378536 30.610733 L 32.378536 32.482407 L 15.632186 32.482407 L 15.632186 32.481663 L 15.631456 32.481663 L 15.631456 15.507469 L 17.478001 15.507469 L 14.34443 8.99398 L 11.211651 15.507469 L 13.057443 15.507469 L 13.057443 32.492531 L 13.057471 32.492531 L 13.057471 35.091408 L 15.621463 35.091408 L 15.621463 35.091438 L 32.378536 35.091438 L 32.378536 36.962341 Z"/>
    </g>
</svg>
