<?xml version="1.0" encoding="UTF-8"?>
<!-- Generated by Pixelmator Pro 3.6.18 -->
<svg width="48" height="48" viewBox="0 0 48 48" xmlns="http://www.w3.org/2000/svg">
    <g id="New">
        <path id="Currency-alt" fill="#000000" fill-rule="evenodd" stroke="none" d="M 15.979851 29.09277 C 15.30162 29.476912 13.945158 30.021116 12.50023 30.021116 C 10.966836 30.021116 9.551396 29.476912 8.548794 28.292473 C 7.929539 27.588211 7.487214 26.531815 7.280797 25.187313 L 15.095201 25.187313 L 15.095201 23.20257 L 6.956425 23.20257 C 6.956425 23.010498 6.956425 22.88245 6.956425 22.69038 C 6.956425 22.274225 6.956425 21.890081 7.015403 21.537951 L 15.095201 21.537951 L 15.095201 19.553207 L 7.369263 19.553207 C 7.605168 18.336754 8.047494 17.280361 8.666748 16.576096 C 9.639862 15.391655 10.937347 14.815437 12.411764 14.815437 C 13.738738 14.815437 14.947762 15.231594 15.714456 15.647751 L 16.451664 12.702652 C 15.478549 12.190456 14.004132 11.710281 12.234836 11.710281 C 9.610373 11.710281 7.457726 12.798687 5.865357 14.687389 C 4.803778 15.93586 4.007595 17.568464 3.653735 19.553207 L 1.678016 19.553207 L 1.678016 21.537951 L 3.388338 21.537951 C 3.35885 21.890081 3.329364 22.306236 3.329364 22.722393 C 3.329364 22.88245 3.329364 23.042509 3.329364 23.20257 L 1.678016 23.20257 L 1.678016 25.187313 L 3.565269 25.187313 C 3.830663 27.140041 4.479406 28.740639 5.423032 29.925081 C 6.985914 32.069881 9.403956 33.222313 12.087393 33.222313 C 13.974648 33.222313 15.625992 32.582073 16.599106 31.941833 Z M 25.17024 36.49715 L 25.17024 32.99968 C 28.384466 32.379433 30.124279 29.829525 30.124279 26.900579 C 30.124279 23.799339 28.679348 21.938595 25.376657 20.491352 C 22.840662 19.354229 21.779081 18.527237 21.779081 17.114449 C 21.779081 15.942871 22.516291 14.70237 24.580473 14.70237 C 26.585676 14.70237 27.883165 15.494915 28.590887 15.908413 L 29.38707 12.738255 C 28.443443 12.186924 27.175447 11.635593 25.31768 11.566677 L 25.31768 8.396526 L 22.899639 8.396526 L 22.899639 11.738968 C 19.92132 12.359215 18.15202 14.667915 18.15202 17.631323 C 18.15202 20.801476 20.186714 22.489929 23.2535 23.799339 C 25.465124 24.729713 26.497215 25.694542 26.497215 27.279617 C 26.497215 28.899155 25.229216 29.96736 23.341965 29.96736 C 21.543177 29.96736 19.92132 29.278194 18.741785 28.451197 L 17.945604 31.724728 C 19.007183 32.517265 20.864946 33.137512 22.72271 33.206429 L 22.72271 36.49715 Z M 40.255203 33.218491 L 40.255203 28.171268 L 44.884872 28.171268 L 44.884872 26.604259 L 40.255203 26.604259 L 40.255203 23.252283 L 44.884872 23.252283 L 44.884872 21.633549 L 41.228321 21.633549 L 46.359291 11.663849 L 42.555294 11.663849 L 39.960323 17.628157 C 39.459023 18.861 39.075672 20.26742 38.721817 21.267025 L 38.662838 21.267025 C 38.308975 20.167463 37.955116 18.927641 37.453815 17.694796 L 34.947311 11.663849 L 31.054852 11.663849 L 35.920425 21.633549 L 32.26387 21.633549 L 32.26387 23.252283 L 36.83456 23.252283 L 36.83456 26.604259 L 32.26387 26.604259 L 32.26387 28.171268 L 36.83456 28.171268 L 36.83456 33.218491 Z"/>
    </g>
</svg>
