<?xml version="1.0" encoding="UTF-8"?>
<!-- Generated by Pixelmator Pro 3.6.18 -->
<svg width="48" height="48" viewBox="0 0 48 48" xmlns="http://www.w3.org/2000/svg">
    <g id="New">
        <path id="DataStorage" fill="#000000" fill-rule="evenodd" stroke="none" d="M 24.90148 4.259472 C 35.869164 4.259472 44.760239 13.150539 44.760239 24.118227 C 44.760239 35.085915 35.869164 43.976982 24.90148 43.976982 C 13.933794 43.976982 5.042722 35.085915 5.042722 24.118227 C 5.042722 13.150539 13.933794 4.259472 24.90148 4.259472 Z M 24.897799 7.558483 C 34.043491 7.558483 41.457542 14.972534 41.457542 24.118227 C 41.457542 33.263916 34.043491 40.677971 24.897799 40.677971 C 15.752103 40.677971 8.338048 33.263916 8.338048 24.118227 C 8.338048 14.972534 15.752103 7.558483 24.897799 7.558483 Z M 33.103909 24.118227 C 33.103909 19.571455 29.418022 15.885574 24.871254 15.885574 C 20.324484 15.885574 16.638594 19.571455 16.638594 24.118227 C 16.638594 28.664997 20.324484 32.350883 24.871254 32.350883 C 29.418022 32.350883 33.103909 28.664997 33.103909 24.118227 Z M 24.880928 19.165186 C 27.616419 19.165186 29.833971 21.38274 29.833971 24.118227 C 29.833971 26.853714 27.616419 29.07127 24.880928 29.07127 C 22.145441 29.07127 19.927889 26.853714 19.927889 24.118227 C 19.927889 21.38274 22.145441 19.165186 24.880928 19.165186 Z M 26.544775 24.118227 C 26.544775 23.199442 25.799952 22.454618 24.881166 22.454618 C 23.962383 22.454618 23.217562 23.199442 23.217562 24.118227 C 23.217562 25.037012 23.962383 25.781834 24.881166 25.781834 C 25.799952 25.781834 26.544775 25.037012 26.544775 24.118227 Z"/>
    </g>
</svg>
