<?xml version="1.0" encoding="UTF-8"?>
<!-- Generated by Pixelmator Pro 3.6.18 -->
<svg width="48" height="48" viewBox="0 0 48 48" xmlns="http://www.w3.org/2000/svg">
    <g id="New">
        <path id="Density" fill="#000000" fill-rule="evenodd" stroke="none" d="M 23.560667 4.514236 C 34.186508 4.514236 42.800461 13.227306 42.800461 23.975418 C 42.800461 34.72353 34.186508 43.4366 23.560667 43.4366 C 12.934831 43.4366 4.32088 34.72353 4.32088 23.975418 C 4.32088 13.227306 12.934831 4.514236 23.560667 4.514236 Z M 11.956035 33.685959 L 35.1586 33.685959 C 32.396626 37.058304 28.224991 39.206543 23.55732 39.206543 C 18.889647 39.206543 14.718011 37.058304 11.956035 33.685959 Z M 23.496334 13.310783 L 33.16399 30.923922 L 13.828677 30.923922 L 23.496334 13.310783 Z M 24.915201 8.805386 C 32.595173 9.49971 38.61517 16.026449 38.61517 23.975418 C 38.61517 26.442308 38.035374 28.772221 37.006104 30.83334 L 24.915201 8.805386 Z M 22.070774 8.817577 C 14.452333 9.572735 8.499461 16.070894 8.499461 23.975418 C 8.499461 26.395767 9.057586 28.684259 10.050754 30.716396 L 22.070774 8.817577 Z M 29.009365 28.133823 L 23.496334 18.089838 L 17.983299 28.133823 L 29.009365 28.133823 Z"/>
    </g>
</svg>
