<?xml version="1.0" encoding="UTF-8"?>
<!-- Generated by Pixelmator Pro 3.6.18 -->
<svg width="48" height="48" viewBox="0 0 48 48" xmlns="http://www.w3.org/2000/svg">
    <g id="New">
        <path id="Energy" fill="#000000" fill-rule="evenodd" stroke="none" d="M 24.062323 3.069931 C 26.791687 3.069931 29.185579 7.07373 30.529346 13.089256 C 36.410828 11.245228 41.075169 11.316494 42.439846 13.680195 C 43.804531 16.043896 41.534077 20.118969 36.996365 24.290468 C 41.534077 28.461966 43.804531 32.537037 42.439846 34.900734 C 41.075169 37.264435 36.410828 37.335705 30.529345 35.49168 C 29.185579 41.507202 26.791687 45.511005 24.062323 45.511005 C 21.332958 45.511005 18.939068 41.507202 17.595301 35.49168 C 11.71382 37.335705 7.049479 37.264435 5.684798 34.900734 C 4.320114 32.537037 6.590563 28.461966 11.128277 24.290466 C 6.590563 20.118967 4.320114 16.043898 5.684798 13.680195 C 7.049479 11.316494 11.71382 11.245232 17.595301 13.089256 C 18.939068 7.07373 21.332958 3.069931 24.062323 3.069931 Z M 19.265163 13.652782 C 20.388216 9.722801 22.11974 7.203907 24.062323 7.203907 C 26.004904 7.203907 27.736431 9.722801 28.859484 13.652782 C 27.314949 14.209953 25.704569 14.888077 24.062323 15.681 C 22.420078 14.888077 20.8097 14.209953 19.265163 13.652782 Z M 22.315847 16.561729 C 21.122997 16.049906 19.962286 15.618492 18.855141 15.271366 C 18.602186 16.403748 18.395447 17.624659 18.242273 18.913609 C 18.895779 18.501034 19.567522 18.095097 20.255947 17.697634 C 20.944372 17.300171 21.631798 16.921394 22.315847 16.561729 Z M 25.808798 16.561729 C 27.001648 16.049906 28.162359 15.618492 29.269505 15.271366 C 29.522461 16.403748 29.7292 17.62466 29.882374 18.91361 C 29.22887 18.501036 28.557123 18.095097 27.868696 17.697634 C 27.180271 17.300171 26.492849 16.921394 25.808798 16.561729 Z M 30.065836 20.824343 C 29.137871 20.193048 28.155643 19.575773 27.12718 18.981989 C 26.098715 18.388205 25.073025 17.84621 24.062325 17.358215 C 23.051622 17.84621 22.025932 18.388205 20.997469 18.981989 C 19.969004 19.575773 18.986776 20.193048 18.058811 20.824343 C 17.976076 21.943632 17.932613 23.102901 17.932613 24.290468 C 17.932613 25.478035 17.976076 26.637306 18.058811 27.756594 C 18.986776 28.38789 19.969004 29.005167 20.997469 29.598951 C 22.025932 30.192736 23.051622 30.734732 24.062323 31.222725 C 25.073025 30.734732 26.098715 30.192736 27.12718 29.598951 C 28.155643 29.005167 29.137869 28.38789 30.065834 27.756596 C 30.148571 26.637306 30.192034 25.478035 30.192034 24.290468 C 30.192034 23.102901 30.148571 21.943632 30.065836 20.824343 Z M 31.518341 19.985735 C 31.383909 18.167048 31.165993 16.433357 30.876251 14.817165 C 34.84124 13.824764 37.888428 14.064861 38.859718 15.747189 C 39.831009 17.429514 38.515347 20.188505 35.673409 23.126087 C 34.418613 22.067066 33.026154 21.011499 31.518341 19.985735 Z M 34.476685 24.290468 C 33.622494 23.505213 32.668522 22.715715 31.628845 21.938589 C 31.659391 22.710827 31.675072 23.495543 31.675072 24.290468 C 31.675072 25.085394 31.659391 25.870111 31.628845 26.642347 C 32.668522 25.865221 33.622494 25.075724 34.476685 24.290468 Z M 35.673409 25.454849 C 38.515347 28.392431 39.831009 31.151424 38.859718 32.833748 C 37.888428 34.516075 34.84124 34.756172 30.876251 33.763775 C 31.165993 32.147579 31.383909 30.413889 31.518341 28.595201 C 33.026154 27.569437 34.418617 26.51387 35.673409 25.454849 Z M 28.859484 34.928154 C 27.736431 38.858139 26.004904 41.377029 24.062323 41.377029 C 22.119741 41.377029 20.388216 38.858139 19.265163 34.928154 C 20.809698 34.370983 22.420076 33.69286 24.062323 32.899937 C 25.704567 33.69286 27.314947 34.370983 28.859484 34.928154 Z M 25.808796 32.019211 C 27.001646 32.531033 28.162357 32.962448 29.269505 33.30957 C 29.522459 32.177189 29.7292 30.956276 29.882374 29.667326 C 29.228868 30.079903 28.557123 30.485842 27.868696 30.883305 C 27.180271 31.280767 26.492847 31.659544 25.808796 32.019211 Z M 22.315849 32.019211 C 21.122999 32.531033 19.962288 32.962448 18.855141 33.30957 C 18.602186 32.177193 18.395447 30.956278 18.242273 29.667328 C 18.895777 30.079903 19.567522 30.485842 20.255947 30.883305 C 20.944372 31.280767 21.631798 31.659546 22.315849 32.019211 Z M 16.606302 28.595201 C 16.740734 30.413891 16.958652 32.147583 17.248396 33.763775 C 13.283405 34.756172 10.236217 34.516075 9.264925 32.833748 C 8.293635 31.151424 9.609298 28.392431 12.451237 25.454849 C 13.706029 26.513872 15.098489 27.569437 16.606302 28.595201 Z M 12.451236 23.126083 C 13.706028 22.067064 15.09849 21.011499 16.606302 19.985735 C 16.740734 18.167048 16.958651 16.433357 17.248392 14.817165 C 13.283404 13.82476 10.236217 14.064861 9.264925 15.747189 C 8.293635 17.429512 9.609298 20.188503 12.451236 23.126083 Z M 13.647962 24.290468 C 14.502152 25.075722 15.456122 25.865219 16.495798 26.642345 C 16.465252 25.870108 16.449572 25.085394 16.449572 24.290468 C 16.449572 23.495544 16.465252 22.710827 16.4958 21.938591 C 15.456124 22.715717 14.502153 23.505215 13.647962 24.290468 Z M 27.107424 24.195307 C 27.107424 22.513546 25.744083 21.150209 24.062323 21.150209 C 22.380558 21.150209 21.01722 22.513546 21.01722 24.195307 C 21.01722 25.877071 22.380558 27.240408 24.062323 27.240408 C 25.744083 27.240408 27.107424 25.877071 27.107424 24.195307 Z"/>
    </g>
</svg>
