<?xml version="1.0" encoding="UTF-8"?>
<svg width="48px" height="48px" viewBox="0 0 48 48" version="1.1" xmlns="http://www.w3.org/2000/svg" xmlns:xlink="http://www.w3.org/1999/xlink">
    <title>China (CN)</title>
    <g id="Page-1" stroke="none" stroke-width="1" fill="none" fill-rule="evenodd">
        <g id="China-(CN)">
            <g id="Shape" fill="#D8D8D8">
                <circle id="Mask" cx="24" cy="24" r="24"></circle>
            </g>
            <g id="Flag">
                <rect id="Background" fill="#EE1C25" x="0" y="0" width="48" height="48"></rect>
                <polygon id="Star" fill="#FFFF00" transform="translate(25.8758, 23.8758) rotate(21) translate(-25.8758, -23.8758)" points="25.8758451 25.0758451 24.1124894 26.3028961 24.7345773 24.2466655 23.0226756 22.9487941 25.1705028 22.9050247 25.8758451 20.8758451 26.5811874 22.9050247 28.7290147 22.9487941 27.0171129 24.2466655 27.6392009 26.3028961"></polygon>
                <polygon id="Star" fill="#FFFF00" points="30.7419945 19.9419945 28.9786388 21.1690455 29.6007267 19.1128149 27.888825 17.8149435 30.0366522 17.7711741 30.7419945 15.7419945 31.4473368 17.7711741 33.5951641 17.8149435 31.8832623 19.1128149 32.5053503 21.1690455"></polygon>
                <polygon id="Star" fill="#FFFF00" transform="translate(30.742, 11.742) rotate(46) translate(-30.742, -11.742)" points="30.7419945 12.9419945 28.9786388 14.1690455 29.6007267 12.1128149 27.888825 10.8149435 30.0366522 10.7711741 30.7419945 8.74199451 31.4473368 10.7711741 33.5951641 10.8149435 31.8832623 12.1128149 32.5053503 14.1690455"></polygon>
                <polygon id="Star" fill="#FFFF00" transform="translate(26, 7) rotate(21) translate(-26, -7)" points="26 8.2 24.2366442 9.42705098 24.8587322 7.37082039 23.1468305 6.07294902 25.2946577 6.02917961 26 4 26.7053423 6.02917961 28.8531695 6.07294902 27.1412678 7.37082039 27.7633558 9.42705098"></polygon>
                <polygon id="Star" fill="#FFFF00" points="14 16.8 9.88550323 19.663119 11.3370418 14.8652476 7.34260439 11.836881 12.3542013 11.7347524 14 7 15.6457987 11.7347524 20.6573956 11.836881 16.6629582 14.8652476 18.1144968 19.663119"></polygon>
            </g>
        </g>
    </g>
</svg>