<?xml version="1.0" encoding="UTF-8"?>
<svg width="48px" height="48px" viewBox="0 0 48 48" version="1.1" xmlns="http://www.w3.org/2000/svg" xmlns:xlink="http://www.w3.org/1999/xlink">
    <title>The United States of America (US)</title>
    <g id="Page-1" stroke="none" stroke-width="1" fill="none" fill-rule="evenodd">
        <g id="The-United-States-of-America-(US)">
            <g id="Shape" fill="#D8D8D8" fill-rule="evenodd">
                <circle id="Mask" cx="24" cy="24" r="24"></circle>
            </g>
            <g id="Flag" transform="translate(-12, 0)">
                <rect id="Background" fill="#B22234" fill-rule="evenodd" x="12" y="0" width="48" height="48"></rect>
                <path d="M91,40.5053846 L91,44.5053846 L0,44.5053846 L0,40.5053846 L91,40.5053846 Z M91,33.1207692 L91,37.1207692 L0,37.1207692 L0,33.1207692 L91,33.1207692 Z M91,25.7361538 L91,29.7361538 L0,29.7361538 L0,25.7361538 L91,25.7361538 Z M91,18.3515385 L91,22.3515385 L0,22.3515385 L0,18.3515385 L91,18.3515385 Z M91,10.9669231 L91,14.9669231 L0,14.9669231 L0,10.9669231 L91,10.9669231 Z M91,3.58230769 L91,7.58230769 L0,7.58230769 L0,3.58230769 L91,3.58230769 Z" id="White" fill="#FFFFFF" fill-rule="nonzero"></path>
                <polygon id="Blue" fill="#3C3B6E" fill-rule="nonzero" points="0.2 0.110576923 36.2 0.110576923 36.2 25.7355769 0.2 25.7355769"></polygon>
                <path d="M3.03333333,1.10769231 L3.89954035,3.77947077 L1.63178596,2.12822154 L4.43489298,2.12822154 L2.16712632,3.77947077 L3.03333333,1.10769231 Z M3.03333333,6.27692308 L3.89954035,8.94870154 L1.63178596,7.29745231 L4.43489298,7.29745231 L2.16712632,8.94870154 L3.03333333,6.27692308 Z M3.03333333,11.4461538 L3.89954035,14.1179323 L1.63178596,12.4666831 L4.43489298,12.4666831 L2.16712632,14.1179323 L3.03333333,11.4461538 Z M3.03333333,16.6153846 L3.89954035,19.2871631 L1.63178596,17.6359138 L4.43489298,17.6359138 L2.16712632,19.2871631 L3.03333333,16.6153846 Z M3.03333333,21.7846154 L3.89954035,24.4563938 L1.63178596,22.8051446 L4.43489298,22.8051446 L2.16712632,24.4563938 L3.03333333,21.7846154 Z M6.06666667,3.69230769 L6.93287368,6.36408615 L4.6651193,4.71283692 L7.46822632,4.71283692 L5.20045965,6.36408615 L6.06666667,3.69230769 Z M6.06666667,8.86153846 L6.93287368,11.5333169 L4.6651193,9.88206769 L7.46822632,9.88206769 L5.20045965,11.5333169 L6.06666667,8.86153846 Z M6.06666667,14.0307692 L6.93287368,16.7025477 L4.6651193,15.0512985 L7.46822632,15.0512985 L5.20045965,16.7025477 L6.06666667,14.0307692 Z M6.06666667,19.2 L6.93287368,21.8717785 L4.6651193,20.2205292 L7.46822632,20.2205292 L5.20045965,21.8717785 L6.06666667,19.2 Z M9.1,1.10769231 L9.96620702,3.77947077 L7.69845263,2.12822154 L10.5015596,2.12822154 L8.23379298,3.77947077 L9.1,1.10769231 Z M9.1,6.27692308 L9.96620702,8.94870154 L7.69845263,7.29745231 L10.5015596,7.29745231 L8.23379298,8.94870154 L9.1,6.27692308 Z M9.1,11.4461538 L9.96620702,14.1179323 L7.69845263,12.4666831 L10.5015596,12.4666831 L8.23379298,14.1179323 L9.1,11.4461538 Z M9.1,16.6153846 L9.96620702,19.2871631 L7.69845263,17.6359138 L10.5015596,17.6359138 L8.23379298,19.2871631 L9.1,16.6153846 Z M9.1,21.7846154 L9.96620702,24.4563938 L7.69845263,22.8051446 L10.5015596,22.8051446 L8.23379298,24.4563938 L9.1,21.7846154 Z M12.1333333,3.69230769 L12.9995404,6.36408615 L10.731786,4.71283692 L13.534893,4.71283692 L11.2671263,6.36408615 L12.1333333,3.69230769 Z M12.1333333,8.86153846 L12.9995404,11.5333169 L10.731786,9.88206769 L13.534893,9.88206769 L11.2671263,11.5333169 L12.1333333,8.86153846 Z M12.1333333,14.0307692 L12.9995404,16.7025477 L10.731786,15.0512985 L13.534893,15.0512985 L11.2671263,16.7025477 L12.1333333,14.0307692 Z M12.1333333,19.2 L12.9995404,21.8717785 L10.731786,20.2205292 L13.534893,20.2205292 L11.2671263,21.8717785 L12.1333333,19.2 Z M15.1666667,1.10769231 L16.0328737,3.77947077 L13.7651193,2.12822154 L16.5682263,2.12822154 L14.3004596,3.77947077 L15.1666667,1.10769231 Z M15.1666667,6.27692308 L16.0328737,8.94870154 L13.7651193,7.29745231 L16.5682263,7.29745231 L14.3004596,8.94870154 L15.1666667,6.27692308 Z M15.1666667,11.4461538 L16.0328737,14.1179323 L13.7651193,12.4666831 L16.5682263,12.4666831 L14.3004596,14.1179323 L15.1666667,11.4461538 Z M15.1666667,16.6153846 L16.0328737,19.2871631 L13.7651193,17.6359138 L16.5682263,17.6359138 L14.3004596,19.2871631 L15.1666667,16.6153846 Z M15.1666667,21.7846154 L16.0328737,24.4563938 L13.7651193,22.8051446 L16.5682263,22.8051446 L14.3004596,24.4563938 L15.1666667,21.7846154 Z M18.2,3.69230769 L19.066207,6.36408615 L16.7984526,4.71283692 L19.6015596,4.71283692 L17.333793,6.36408615 L18.2,3.69230769 Z M18.2,8.86153846 L19.066207,11.5333169 L16.7984526,9.88206769 L19.6015596,9.88206769 L17.333793,11.5333169 L18.2,8.86153846 Z M18.2,14.0307692 L19.066207,16.7025477 L16.7984526,15.0512985 L19.6015596,15.0512985 L17.333793,16.7025477 L18.2,14.0307692 Z M18.2,19.2 L19.066207,21.8717785 L16.7984526,20.2205292 L19.6015596,20.2205292 L17.333793,21.8717785 L18.2,19.2 Z M21.2333333,1.10769231 L22.0995404,3.77947077 L19.831786,2.12822154 L22.634893,2.12822154 L20.3671263,3.77947077 L21.2333333,1.10769231 Z M21.2333333,6.27692308 L22.0995404,8.94870154 L19.831786,7.29745231 L22.634893,7.29745231 L20.3671263,8.94870154 L21.2333333,6.27692308 Z M21.2333333,11.4461538 L22.0995404,14.1179323 L19.831786,12.4666831 L22.634893,12.4666831 L20.3671263,14.1179323 L21.2333333,11.4461538 Z M21.2333333,16.6153846 L22.0995404,19.2871631 L19.831786,17.6359138 L22.634893,17.6359138 L20.3671263,19.2871631 L21.2333333,16.6153846 Z M21.2333333,21.7846154 L22.0995404,24.4563938 L19.831786,22.8051446 L22.634893,22.8051446 L20.3671263,24.4563938 L21.2333333,21.7846154 Z M24.2666667,3.69230769 L25.1328737,6.36408615 L22.8651193,4.71283692 L25.6682263,4.71283692 L23.4004596,6.36408615 L24.2666667,3.69230769 Z M24.2666667,8.86153846 L25.1328737,11.5333169 L22.8651193,9.88206769 L25.6682263,9.88206769 L23.4004596,11.5333169 L24.2666667,8.86153846 Z M24.2666667,14.0307692 L25.1328737,16.7025477 L22.8651193,15.0512985 L25.6682263,15.0512985 L23.4004596,16.7025477 L24.2666667,14.0307692 Z M24.2666667,19.2 L25.1328737,21.8717785 L22.8651193,20.2205292 L25.6682263,20.2205292 L23.4004596,21.8717785 L24.2666667,19.2 Z M27.3,1.10769231 L28.166207,3.77947077 L25.8984526,2.12822154 L28.7015596,2.12822154 L26.433793,3.77947077 L27.3,1.10769231 Z M27.3,6.27692308 L28.166207,8.94870154 L25.8984526,7.29745231 L28.7015596,7.29745231 L26.433793,8.94870154 L27.3,6.27692308 Z M27.3,11.4461538 L28.166207,14.1179323 L25.8984526,12.4666831 L28.7015596,12.4666831 L26.433793,14.1179323 L27.3,11.4461538 Z M27.3,16.6153846 L28.166207,19.2871631 L25.8984526,17.6359138 L28.7015596,17.6359138 L26.433793,19.2871631 L27.3,16.6153846 Z M27.3,21.7846154 L28.166207,24.4563938 L25.8984526,22.8051446 L28.7015596,22.8051446 L26.433793,24.4563938 L27.3,21.7846154 Z M30.3333333,3.69230769 L31.1995404,6.36408615 L28.931786,4.71283692 L31.734893,4.71283692 L29.4671263,6.36408615 L30.3333333,3.69230769 Z M30.3333333,8.86153846 L31.1995404,11.5333169 L28.931786,9.88206769 L31.734893,9.88206769 L29.4671263,11.5333169 L30.3333333,8.86153846 Z M30.3333333,14.0307692 L31.1995404,16.7025477 L28.931786,15.0512985 L31.734893,15.0512985 L29.4671263,16.7025477 L30.3333333,14.0307692 Z M30.3333333,19.2 L31.1995404,21.8717785 L28.931786,20.2205292 L31.734893,20.2205292 L29.4671263,21.8717785 L30.3333333,19.2 Z M33.3666667,1.10769231 L34.2328737,3.77947077 L31.9651193,2.12822154 L34.7682263,2.12822154 L32.5004596,3.77947077 L33.3666667,1.10769231 Z M33.3666667,6.27692308 L34.2328737,8.94870154 L31.9651193,7.29745231 L34.7682263,7.29745231 L32.5004596,8.94870154 L33.3666667,6.27692308 Z M33.3666667,11.4461538 L34.2328737,14.1179323 L31.9651193,12.4666831 L34.7682263,12.4666831 L32.5004596,14.1179323 L33.3666667,11.4461538 Z M33.3666667,16.6153846 L34.2328737,19.2871631 L31.9651193,17.6359138 L34.7682263,17.6359138 L32.5004596,19.2871631 L33.3666667,16.6153846 Z M33.3666667,21.7846154 L34.2328737,24.4563938 L31.9651193,22.8051446 L34.7682263,22.8051446 L32.5004596,24.4563938 L33.3666667,21.7846154 Z" id="Stars" fill="#FFFFFF" fill-rule="nonzero"></path>
            </g>
        </g>
    </g>
</svg>