<?xml version="1.0" encoding="UTF-8"?>
<svg width="48px" height="48px" viewBox="0 0 48 48" version="1.1" xmlns="http://www.w3.org/2000/svg" xmlns:xlink="http://www.w3.org/1999/xlink">
    <title>Canada (CA)</title>
    <g id="Page-1" stroke="none" stroke-width="1" fill="none" fill-rule="evenodd">
        <g id="Canada-(CA)">
            <g id="Shape" fill="#D8D8D8" fill-rule="evenodd">
                <circle id="Mask" cx="24" cy="24" r="24"></circle>
            </g>
            <g id="Flag">
                <rect id="Background" fill="#FFFFFF" fill-rule="evenodd" x="0" y="0" width="48" height="48"></rect>
                <rect id="Red" fill="#D52B1E" fill-rule="evenodd" x="38" y="0" width="10" height="48"></rect>
                <rect id="Red" fill="#D52B1E" fill-rule="evenodd" x="0" y="0" width="10" height="48"></rect>
                <path d="M24.5806452,37 L24.2903226,31.4322581 C24.2817738,31.2467967 24.3577518,31.0674564 24.4969288,30.9445793 C24.6361059,30.8217023 24.8234791,30.7685343 25.0064516,30.8 L30.5483871,31.7741935 L29.8,29.7096774 C29.7377444,29.5412537 29.7896265,29.3518838 29.9290323,29.2387097 L36,24.3225806 L34.6322581,23.683871 C34.4411271,23.5935515 34.3471056,23.3750899 34.4129032,23.1741935 L35.6129032,19.483871 L32.116129,20.2258065 C31.9208079,20.2665306 31.7238391,20.1639989 31.6451613,19.9806452 L30.9677419,18.3870968 L28.2387097,21.316129 C28.110537,21.4513221 27.9085424,21.4857513 27.7428215,21.4006514 C27.5771007,21.3155515 27.487388,21.1313266 27.5225806,20.9483871 L28.8387097,14.1612903 L26.7290323,15.3806452 C26.628914,15.4393235 26.5089564,15.4538913 26.3977035,15.4208822 C26.2864506,15.3878731 26.1938498,15.3102385 26.1419355,15.2064516 L24,11 L21.8580645,15.2064516 C21.8061502,15.3102385 21.7135494,15.3878731 21.6022965,15.4208822 C21.4910436,15.4538913 21.371086,15.4393235 21.2709677,15.3806452 L19.1612903,14.1612903 L20.4774194,20.9483871 C20.512612,21.1313266 20.4228993,21.3155515 20.2571785,21.4006514 C20.0914576,21.4857513 19.889463,21.4513221 19.7612903,21.316129 L17.0322581,18.3870968 L16.3548387,19.9806452 C16.2761609,20.1639989 16.0791921,20.2665306 15.883871,20.2258065 L12.3870968,19.483871 L13.5870968,23.1741935 C13.6528944,23.3750899 13.5588729,23.5935515 13.3677419,23.683871 L12,24.3225806 L18.0709677,29.2387097 C18.2103735,29.3518838 18.2622556,29.5412537 18.2,29.7096774 L17.4516129,31.7741935 L22.9935484,30.8 C23.1765209,30.7685343 23.3638941,30.8217023 23.5030712,30.9445793 C23.6422482,31.0674564 23.7182262,31.2467967 23.7096774,31.4322581 L23.4193548,37 L24.5806452,37 Z" id="Path" fill="#D52B1E" fill-rule="nonzero"></path>
            </g>
        </g>
    </g>
</svg>