<?xml version="1.0" encoding="UTF-8"?>
<svg width="48px" height="48px" viewBox="0 0 48 48" version="1.1" xmlns="http://www.w3.org/2000/svg" xmlns:xlink="http://www.w3.org/1999/xlink">
    <title>Europe  (EU)</title>
    <g id="Page-1" stroke="none" stroke-width="1" fill="none" fill-rule="evenodd">
        <g id="Europe--(EU)">
            <g id="Shape" fill="#D8D8D8" fill-rule="evenodd">
                <circle id="Mask" cx="24" cy="24" r="24"></circle>
            </g>
            <g id="Flag" transform="translate(-12, 0)">
                <rect id="Rectangle" fill="#003399" fill-rule="nonzero" x="0" y="0" width="72" height="48"></rect>
                <g id="Group" stroke-width="1" fill-rule="evenodd" transform="translate(16.6801, 5.1273)" fill="#FFCC00">
                    <g id="s-link" transform="translate(16, -0)" fill-rule="nonzero">
                        <g id="s" transform="translate(0, 0)">
                            <g id="c" transform="translate(1.4178, -0)">
                                <polygon id="t" transform="translate(2.1241, 1.6801) rotate(18) translate(-2.1241, -1.6801)" points="1.45746138 0.346764681 1.45746138 3.01343135 2.79079472 3.01343135"></polygon>
                                <g id="t-link" transform="translate(1.6801, 1.6801) scale(-1, 1) translate(-1.6801, -1.6801)translate(0, 0)">
                                    <polygon id="t" transform="translate(1.6801, 1.6801) rotate(18) translate(-1.6801, -1.6801)" points="1.01343135 0.346764681 1.01343135 3.01343135 2.34676468 3.01343135"></polygon>
                                </g>
                            </g>
                            <g id="a" transform="translate(1.4945, 0.176)">
                                <g id="c-link" transform="translate(2.9596, 2.3282) rotate(72) translate(-2.9596, -2.3282)translate(1.0575, 0.6481)">
                                    <g id="c" transform="translate(-0, 0)">
                                        <polygon id="t" transform="translate(2.1241, 1.6801) rotate(18) translate(-2.1241, -1.6801)" points="1.45746138 0.346764681 1.45746138 3.01343135 2.79079472 3.01343135"></polygon>
                                        <g id="t-link" transform="translate(1.6801, 1.6801) scale(-1, 1) translate(-1.6801, -1.6801)translate(-0, 0)">
                                            <polygon id="t" transform="translate(1.6801, 1.6801) rotate(18) translate(-1.6801, -1.6801)" points="1.01343135 0.346764681 1.01343135 3.01343135 2.34676468 3.01343135"></polygon>
                                        </g>
                                    </g>
                                </g>
                                <g id="c-link" transform="translate(2.5264, 3.6615) rotate(144) translate(-2.5264, -3.6615)translate(0.6243, 1.9814)">
                                    <g id="c" transform="translate(0, 0)">
                                        <polygon id="t" transform="translate(2.1241, 1.6801) rotate(18) translate(-2.1241, -1.6801)" points="1.45746138 0.346764681 1.45746138 3.01343135 2.79079472 3.01343135"></polygon>
                                        <g id="t-link" transform="translate(1.6801, 1.6801) scale(-1, 1) translate(-1.6801, -1.6801)translate(-0, -0)">
                                            <polygon id="t" transform="translate(1.6801, 1.6801) rotate(18) translate(-1.6801, -1.6801)" points="1.01343135 0.346764681 1.01343135 3.01343135 2.34676468 3.01343135"></polygon>
                                        </g>
                                    </g>
                                </g>
                            </g>
                            <g id="a-link" transform="translate(2.5726, 3.2454) scale(-1, 1) translate(-2.5726, -3.2454)translate(-0, 0.176)">
                                <g id="a" transform="translate(-0, 0)">
                                    <g id="c-link" transform="translate(2.9596, 2.3282) rotate(72) translate(-2.9596, -2.3282)translate(1.0575, 0.6481)">
                                        <g id="c" transform="translate(-0, -0)">
                                            <polygon id="t" transform="translate(2.1241, 1.6801) rotate(18) translate(-2.1241, -1.6801)" points="1.45746138 0.346764681 1.45746138 3.01343135 2.79079472 3.01343135"></polygon>
                                            <g id="t-link" transform="translate(1.6801, 1.6801) scale(-1, 1) translate(-1.6801, -1.6801)translate(-0, 0)">
                                                <polygon id="t" transform="translate(1.6801, 1.6801) rotate(18) translate(-1.6801, -1.6801)" points="1.01343135 0.346764681 1.01343135 3.01343135 2.34676468 3.01343135"></polygon>
                                            </g>
                                        </g>
                                    </g>
                                    <g id="c-link" transform="translate(2.5264, 3.6615) rotate(144) translate(-2.5264, -3.6615)translate(0.6243, 1.9814)">
                                        <g id="c" transform="translate(0, 0)">
                                            <polygon id="t" transform="translate(2.1241, 1.6801) rotate(18) translate(-2.1241, -1.6801)" points="1.45746138 0.346764681 1.45746138 3.01343135 2.79079472 3.01343135"></polygon>
                                            <g id="t-link" transform="translate(1.6801, 1.6801) scale(-1, 1) translate(-1.6801, -1.6801)translate(0, -0)">
                                                <polygon id="t" transform="translate(1.6801, 1.6801) rotate(18) translate(-1.6801, -1.6801)" points="1.01343135 0.346764681 1.01343135 3.01343135 2.34676468 3.01343135"></polygon>
                                            </g>
                                        </g>
                                    </g>
                                </g>
                            </g>
                        </g>
                    </g>
                    <g id="s-link" transform="translate(16, 32)" fill-rule="nonzero">
                        <g id="s">
                            <g id="c" transform="translate(1.4178, 0)">
                                <polygon id="t" transform="translate(2.1241, 1.6801) rotate(18) translate(-2.1241, -1.6801)" points="1.45746138 0.346764681 1.45746138 3.01343135 2.79079472 3.01343135"></polygon>
                                <g id="t-link" transform="translate(1.6801, 1.6801) scale(-1, 1) translate(-1.6801, -1.6801)">
                                    <polygon id="t" transform="translate(1.6801, 1.6801) rotate(18) translate(-1.6801, -1.6801)" points="1.01343135 0.346764681 1.01343135 3.01343135 2.34676468 3.01343135"></polygon>
                                </g>
                            </g>
                            <g id="a" transform="translate(1.4945, 0.176)">
                                <g id="c-link" transform="translate(2.9596, 2.3282) rotate(72) translate(-2.9596, -2.3282)translate(1.0575, 0.6481)">
                                    <g id="c" transform="translate(0, -0)">
                                        <polygon id="t" transform="translate(2.1241, 1.6801) rotate(18) translate(-2.1241, -1.6801)" points="1.45746138 0.346764681 1.45746138 3.01343135 2.79079472 3.01343135"></polygon>
                                        <g id="t-link" transform="translate(1.6801, 1.6801) scale(-1, 1) translate(-1.6801, -1.6801)translate(-0, 0)">
                                            <polygon id="t" transform="translate(1.6801, 1.6801) rotate(18) translate(-1.6801, -1.6801)" points="1.01343135 0.346764681 1.01343135 3.01343135 2.34676468 3.01343135"></polygon>
                                        </g>
                                    </g>
                                </g>
                                <g id="c-link" transform="translate(2.5264, 3.6615) rotate(144) translate(-2.5264, -3.6615)translate(0.6243, 1.9814)">
                                    <g id="c" transform="translate(-0, 0)">
                                        <polygon id="t" transform="translate(2.1241, 1.6801) rotate(18) translate(-2.1241, -1.6801)" points="1.45746138 0.346764681 1.45746138 3.01343135 2.79079472 3.01343135"></polygon>
                                        <g id="t-link" transform="translate(1.6801, 1.6801) scale(-1, 1) translate(-1.6801, -1.6801)translate(-0, -0)">
                                            <polygon id="t" transform="translate(1.6801, 1.6801) rotate(18) translate(-1.6801, -1.6801)" points="1.01343135 0.346764681 1.01343135 3.01343135 2.34676468 3.01343135"></polygon>
                                        </g>
                                    </g>
                                </g>
                            </g>
                            <g id="a-link" transform="translate(2.5726, 3.2454) scale(-1, 1) translate(-2.5726, -3.2454)translate(-0, 0.176)">
                                <g id="a" transform="translate(-0, 0)">
                                    <g id="c-link" transform="translate(2.9596, 2.3282) rotate(72) translate(-2.9596, -2.3282)translate(1.0575, 0.6481)">
                                        <g id="c" transform="translate(-0, 0)">
                                            <polygon id="t" transform="translate(2.1241, 1.6801) rotate(18) translate(-2.1241, -1.6801)" points="1.45746138 0.346764681 1.45746138 3.01343135 2.79079472 3.01343135"></polygon>
                                            <g id="t-link" transform="translate(1.6801, 1.6801) scale(-1, 1) translate(-1.6801, -1.6801)translate(-0, 0)">
                                                <polygon id="t" transform="translate(1.6801, 1.6801) rotate(18) translate(-1.6801, -1.6801)" points="1.01343135 0.346764681 1.01343135 3.01343135 2.34676468 3.01343135"></polygon>
                                            </g>
                                        </g>
                                    </g>
                                    <g id="c-link" transform="translate(2.5264, 3.6615) rotate(144) translate(-2.5264, -3.6615)translate(0.6243, 1.9814)">
                                        <g id="c" transform="translate(-0, -0)">
                                            <polygon id="t" transform="translate(2.1241, 1.6801) rotate(18) translate(-2.1241, -1.6801)" points="1.45746138 0.346764681 1.45746138 3.01343135 2.79079472 3.01343135"></polygon>
                                            <g id="t-link" transform="translate(1.6801, 1.6801) scale(-1, 1) translate(-1.6801, -1.6801)translate(0, -0)">
                                                <polygon id="t" transform="translate(1.6801, 1.6801) rotate(18) translate(-1.6801, -1.6801)" points="1.01343135 0.346764681 1.01343135 3.01343135 2.34676468 3.01343135"></polygon>
                                            </g>
                                        </g>
                                    </g>
                                </g>
                            </g>
                        </g>
                    </g>
                    <g id="l" transform="translate(-0, 0.2802)" fill-rule="nonzero">
                        <g id="s-link" transform="translate(0, 15.7198)">
                            <g id="s" transform="translate(0, -0)">
                                <g id="c" transform="translate(1.4178, 0)">
                                    <polygon id="t" transform="translate(2.1241, 1.6801) rotate(18) translate(-2.1241, -1.6801)" points="1.45746138 0.346764681 1.45746138 3.01343135 2.79079472 3.01343135"></polygon>
                                    <g id="t-link" transform="translate(1.6801, 1.6801) scale(-1, 1) translate(-1.6801, -1.6801)">
                                        <polygon id="t" transform="translate(1.6801, 1.6801) rotate(18) translate(-1.6801, -1.6801)" points="1.01343135 0.346764681 1.01343135 3.01343135 2.34676468 3.01343135"></polygon>
                                    </g>
                                </g>
                                <g id="a" transform="translate(1.4945, 0.176)">
                                    <g id="c-link" transform="translate(2.9596, 2.3282) rotate(72) translate(-2.9596, -2.3282)translate(1.0575, 0.6481)">
                                        <g id="c" transform="translate(-0, -0)">
                                            <polygon id="t" transform="translate(2.1241, 1.6801) rotate(18) translate(-2.1241, -1.6801)" points="1.45746138 0.346764681 1.45746138 3.01343135 2.79079472 3.01343135"></polygon>
                                            <g id="t-link" transform="translate(1.6801, 1.6801) scale(-1, 1) translate(-1.6801, -1.6801)translate(0, -0)">
                                                <polygon id="t" transform="translate(1.6801, 1.6801) rotate(18) translate(-1.6801, -1.6801)" points="1.01343135 0.346764681 1.01343135 3.01343135 2.34676468 3.01343135"></polygon>
                                            </g>
                                        </g>
                                    </g>
                                    <g id="c-link" transform="translate(2.5264, 3.6615) rotate(144) translate(-2.5264, -3.6615)translate(0.6243, 1.9814)">
                                        <g id="c" transform="translate(0, 0)">
                                            <polygon id="t" transform="translate(2.1241, 1.6801) rotate(18) translate(-2.1241, -1.6801)" points="1.45746138 0.346764681 1.45746138 3.01343135 2.79079472 3.01343135"></polygon>
                                            <g id="t-link" transform="translate(1.6801, 1.6801) scale(-1, 1) translate(-1.6801, -1.6801)translate(-0, -0)">
                                                <polygon id="t" transform="translate(1.6801, 1.6801) rotate(18) translate(-1.6801, -1.6801)" points="1.01343135 0.346764681 1.01343135 3.01343135 2.34676468 3.01343135"></polygon>
                                            </g>
                                        </g>
                                    </g>
                                </g>
                                <g id="a" transform="translate(2.5726, 3.2454) scale(-1, 1) translate(-2.5726, -3.2454)translate(0, 0.176)">
                                    <g id="c-link" transform="translate(2.9596, 2.3282) rotate(72) translate(-2.9596, -2.3282)translate(1.0575, 0.6481)">
                                        <g id="c" transform="translate(-0, 0)">
                                            <polygon id="t" transform="translate(2.1241, 1.6801) rotate(18) translate(-2.1241, -1.6801)" points="1.45746138 0.346764681 1.45746138 3.01343135 2.79079472 3.01343135"></polygon>
                                            <g id="t-link" transform="translate(1.6801, 1.6801) scale(-1, 1) translate(-1.6801, -1.6801)translate(-0, 0)">
                                                <polygon id="t" transform="translate(1.6801, 1.6801) rotate(18) translate(-1.6801, -1.6801)" points="1.01343135 0.346764681 1.01343135 3.01343135 2.34676468 3.01343135"></polygon>
                                            </g>
                                        </g>
                                    </g>
                                    <g id="c-link" transform="translate(2.5264, 3.6615) rotate(144) translate(-2.5264, -3.6615)translate(0.6243, 1.9814)">
                                        <g id="c" transform="translate(-0, 0)">
                                            <polygon id="t" transform="translate(2.1241, 1.6801) rotate(18) translate(-2.1241, -1.6801)" points="1.45746138 0.346764681 1.45746138 3.01343135 2.79079472 3.01343135"></polygon>
                                            <g id="t-link" transform="translate(1.6801, 1.6801) scale(-1, 1) translate(-1.6801, -1.6801)translate(0, -0)">
                                                <polygon id="t" transform="translate(1.6801, 1.6801) rotate(18) translate(-1.6801, -1.6801)" points="1.01343135 0.346764681 1.01343135 3.01343135 2.34676468 3.01343135"></polygon>
                                            </g>
                                        </g>
                                    </g>
                                </g>
                            </g>
                        </g>
                        <g id="s-link" transform="translate(11.4872, 4.5057) rotate(-144) translate(-11.4872, -4.5057)translate(8.1673, 1.3484)">
                            <g id="s" transform="translate(0, -0)">
                                <g id="c" transform="translate(1.4178, -0)">
                                    <polygon id="t" transform="translate(2.1241, 1.6801) rotate(18) translate(-2.1241, -1.6801)" points="1.45746138 0.346764681 1.45746138 3.01343135 2.79079472 3.01343135"></polygon>
                                    <g id="t-link" transform="translate(1.6801, 1.6801) scale(-1, 1) translate(-1.6801, -1.6801)translate(-0, 0)">
                                        <polygon id="t" transform="translate(1.6801, 1.6801) rotate(18) translate(-1.6801, -1.6801)" points="1.01343135 0.346764681 1.01343135 3.01343135 2.34676468 3.01343135"></polygon>
                                    </g>
                                </g>
                                <g id="a" transform="translate(1.4945, 0.176)">
                                    <g id="c-link" transform="translate(2.9596, 2.3282) rotate(72) translate(-2.9596, -2.3282)translate(1.0575, 0.6481)">
                                        <g id="c" transform="translate(-0, -0)">
                                            <polygon id="t" transform="translate(2.1241, 1.6801) rotate(18) translate(-2.1241, -1.6801)" points="1.45746138 0.346764681 1.45746138 3.01343135 2.79079472 3.01343135"></polygon>
                                            <g id="t-link" transform="translate(1.6801, 1.6801) scale(-1, 1) translate(-1.6801, -1.6801)translate(-0, 0)">
                                                <polygon id="t" transform="translate(1.6801, 1.6801) rotate(18) translate(-1.6801, -1.6801)" points="1.01343135 0.346764681 1.01343135 3.01343135 2.34676468 3.01343135"></polygon>
                                            </g>
                                        </g>
                                    </g>
                                    <g id="c-link" transform="translate(2.5264, 3.6615) rotate(144) translate(-2.5264, -3.6615)translate(0.6243, 1.9814)">
                                        <g id="c" transform="translate(-0, -0)">
                                            <polygon id="t" transform="translate(2.1241, 1.6801) rotate(18) translate(-2.1241, -1.6801)" points="1.45746138 0.346764681 1.45746138 3.01343135 2.79079472 3.01343135"></polygon>
                                            <g id="t-link" transform="translate(1.6801, 1.6801) scale(-1, 1) translate(-1.6801, -1.6801)translate(0, 0)">
                                                <polygon id="t" transform="translate(1.6801, 1.6801) rotate(18) translate(-1.6801, -1.6801)" points="1.01343135 0.346764681 1.01343135 3.01343135 2.34676468 3.01343135"></polygon>
                                            </g>
                                        </g>
                                    </g>
                                </g>
                                <g id="a-link" transform="translate(2.5726, 3.2454) scale(-1, 1) translate(-2.5726, -3.2454)translate(0, 0.176)">
                                    <g id="a" transform="translate(0, 0)">
                                        <g id="c-link" transform="translate(2.9596, 2.3282) rotate(72) translate(-2.9596, -2.3282)translate(1.0575, 0.6481)">
                                            <g id="c" transform="translate(0, 0)">
                                                <polygon id="t" transform="translate(2.1241, 1.6801) rotate(18) translate(-2.1241, -1.6801)" points="1.45746138 0.346764681 1.45746138 3.01343135 2.79079472 3.01343135"></polygon>
                                                <g id="t-link" transform="translate(1.6801, 1.6801) scale(-1, 1) translate(-1.6801, -1.6801)translate(-0, -0)">
                                                    <polygon id="t" transform="translate(1.6801, 1.6801) rotate(18) translate(-1.6801, -1.6801)" points="1.01343135 0.346764681 1.01343135 3.01343135 2.34676468 3.01343135"></polygon>
                                                </g>
                                            </g>
                                        </g>
                                        <g id="c-link" transform="translate(2.5264, 3.6615) rotate(144) translate(-2.5264, -3.6615)translate(0.6243, 1.9814)">
                                            <g id="c" transform="translate(0, 0)">
                                                <polygon id="t" transform="translate(2.1241, 1.6801) rotate(18) translate(-2.1241, -1.6801)" points="1.45746138 0.346764681 1.45746138 3.01343135 2.79079472 3.01343135"></polygon>
                                                <g id="t-link" transform="translate(1.6801, 1.6801) scale(-1, 1) translate(-1.6801, -1.6801)translate(-0, -0)">
                                                    <polygon id="t" transform="translate(1.6801, 1.6801) rotate(18) translate(-1.6801, -1.6801)" points="1.01343135 0.346764681 1.01343135 3.01343135 2.34676468 3.01343135"></polygon>
                                                </g>
                                            </g>
                                        </g>
                                    </g>
                                </g>
                            </g>
                        </g>
                        <g id="s-link" transform="translate(5.2961, 10.3621) rotate(144) translate(-5.2961, -10.3621)translate(1.9763, 7.2048)">
                            <g id="s" transform="translate(-0, -0)">
                                <g id="c" transform="translate(1.4178, 0)">
                                    <polygon id="t" transform="translate(2.1241, 1.6801) rotate(18) translate(-2.1241, -1.6801)" points="1.45746138 0.346764681 1.45746138 3.01343135 2.79079472 3.01343135"></polygon>
                                    <g id="t-link" transform="translate(1.6801, 1.6801) scale(-1, 1) translate(-1.6801, -1.6801)translate(-0, -0)">
                                        <polygon id="t" transform="translate(1.6801, 1.6801) rotate(18) translate(-1.6801, -1.6801)" points="1.01343135 0.346764681 1.01343135 3.01343135 2.34676468 3.01343135"></polygon>
                                    </g>
                                </g>
                                <g id="a" transform="translate(1.4945, 0.176)">
                                    <g id="c-link" transform="translate(2.9596, 2.3282) rotate(72) translate(-2.9596, -2.3282)translate(1.0575, 0.6481)">
                                        <g id="c" transform="translate(0, -0)">
                                            <polygon id="t" transform="translate(2.1241, 1.6801) rotate(18) translate(-2.1241, -1.6801)" points="1.45746138 0.346764681 1.45746138 3.01343135 2.79079472 3.01343135"></polygon>
                                            <g id="t-link" transform="translate(1.6801, 1.6801) scale(-1, 1) translate(-1.6801, -1.6801)translate(0, -0)">
                                                <polygon id="t" transform="translate(1.6801, 1.6801) rotate(18) translate(-1.6801, -1.6801)" points="1.01343135 0.346764681 1.01343135 3.01343135 2.34676468 3.01343135"></polygon>
                                            </g>
                                        </g>
                                    </g>
                                    <g id="c-link" transform="translate(2.5264, 3.6615) rotate(144) translate(-2.5264, -3.6615)translate(0.6243, 1.9814)">
                                        <g id="c" transform="translate(0, 0)">
                                            <polygon id="t" transform="translate(2.1241, 1.6801) rotate(18) translate(-2.1241, -1.6801)" points="1.45746138 0.346764681 1.45746138 3.01343135 2.79079472 3.01343135"></polygon>
                                            <g id="t-link" transform="translate(1.6801, 1.6801) scale(-1, 1) translate(-1.6801, -1.6801)translate(-0, -0)">
                                                <polygon id="t" transform="translate(1.6801, 1.6801) rotate(18) translate(-1.6801, -1.6801)" points="1.01343135 0.346764681 1.01343135 3.01343135 2.34676468 3.01343135"></polygon>
                                            </g>
                                        </g>
                                    </g>
                                </g>
                                <g id="a-link" transform="translate(2.5726, 3.2454) scale(-1, 1) translate(-2.5726, -3.2454)translate(0, 0.176)">
                                    <g id="a" transform="translate(0, -0)">
                                        <g id="c-link" transform="translate(2.9596, 2.3282) rotate(72) translate(-2.9596, -2.3282)translate(1.0575, 0.6481)">
                                            <g id="c" transform="translate(-0, -0)">
                                                <polygon id="t" transform="translate(2.1241, 1.6801) rotate(18) translate(-2.1241, -1.6801)" points="1.45746138 0.346764681 1.45746138 3.01343135 2.79079472 3.01343135"></polygon>
                                                <g id="t-link" transform="translate(1.6801, 1.6801) scale(-1, 1) translate(-1.6801, -1.6801)translate(-0, 0)">
                                                    <polygon id="t" transform="translate(1.6801, 1.6801) rotate(18) translate(-1.6801, -1.6801)" points="1.01343135 0.346764681 1.01343135 3.01343135 2.34676468 3.01343135"></polygon>
                                                </g>
                                            </g>
                                        </g>
                                        <g id="c-link" transform="translate(2.5264, 3.6615) rotate(144) translate(-2.5264, -3.6615)translate(0.6243, 1.9814)">
                                            <g id="c" transform="translate(0, -0)">
                                                <polygon id="t" transform="translate(2.1241, 1.6801) rotate(18) translate(-2.1241, -1.6801)" points="1.45746138 0.346764681 1.45746138 3.01343135 2.79079472 3.01343135"></polygon>
                                                <g id="t-link" transform="translate(1.6801, 1.6801) scale(-1, 1) translate(-1.6801, -1.6801)translate(0, 0)">
                                                    <polygon id="t" transform="translate(1.6801, 1.6801) rotate(18) translate(-1.6801, -1.6801)" points="1.01343135 0.346764681 1.01343135 3.01343135 2.34676468 3.01343135"></polygon>
                                                </g>
                                            </g>
                                        </g>
                                    </g>
                                </g>
                            </g>
                        </g>
                        <g id="s-link" transform="translate(5.1927, 26.6805) rotate(72) translate(-5.1927, -26.6805)translate(1.8728, 23.5231)">
                            <g id="s" transform="translate(0, -0)">
                                <g id="c" transform="translate(1.4178, 0)">
                                    <polygon id="t" transform="translate(2.1241, 1.6801) rotate(18) translate(-2.1241, -1.6801)" points="1.45746138 0.346764681 1.45746138 3.01343135 2.79079472 3.01343135"></polygon>
                                    <g id="t-link" transform="translate(1.6801, 1.6801) scale(-1, 1) translate(-1.6801, -1.6801)translate(0, 0)">
                                        <polygon id="t" transform="translate(1.6801, 1.6801) rotate(18) translate(-1.6801, -1.6801)" points="1.01343135 0.346764681 1.01343135 3.01343135 2.34676468 3.01343135"></polygon>
                                    </g>
                                </g>
                                <g id="a" transform="translate(1.4945, 0.176)">
                                    <g id="c-link" transform="translate(2.9596, 2.3282) rotate(72) translate(-2.9596, -2.3282)translate(1.0575, 0.6481)">
                                        <g id="c" transform="translate(0, -0)">
                                            <polygon id="t" transform="translate(2.1241, 1.6801) rotate(18) translate(-2.1241, -1.6801)" points="1.45746138 0.346764681 1.45746138 3.01343135 2.79079472 3.01343135"></polygon>
                                            <g id="t-link" transform="translate(1.6801, 1.6801) scale(-1, 1) translate(-1.6801, -1.6801)translate(0, 0)">
                                                <polygon id="t" transform="translate(1.6801, 1.6801) rotate(18) translate(-1.6801, -1.6801)" points="1.01343135 0.346764681 1.01343135 3.01343135 2.34676468 3.01343135"></polygon>
                                            </g>
                                        </g>
                                    </g>
                                    <g id="c-link" transform="translate(2.5264, 3.6615) rotate(144) translate(-2.5264, -3.6615)translate(0.6243, 1.9814)">
                                        <g id="c" transform="translate(0, -0)">
                                            <polygon id="t" transform="translate(2.1241, 1.6801) rotate(18) translate(-2.1241, -1.6801)" points="1.45746138 0.346764681 1.45746138 3.01343135 2.79079472 3.01343135"></polygon>
                                            <g id="t-link" transform="translate(1.6801, 1.6801) scale(-1, 1) translate(-1.6801, -1.6801)translate(0, 0)">
                                                <polygon id="t" transform="translate(1.6801, 1.6801) rotate(18) translate(-1.6801, -1.6801)" points="1.01343135 0.346764681 1.01343135 3.01343135 2.34676468 3.01343135"></polygon>
                                            </g>
                                        </g>
                                    </g>
                                </g>
                                <g id="a-link" transform="translate(2.5726, 3.2454) scale(-1, 1) translate(-2.5726, -3.2454)translate(0, 0.176)">
                                    <g id="a" transform="translate(0, 0)">
                                        <g id="c-link" transform="translate(2.9596, 2.3282) rotate(72) translate(-2.9596, -2.3282)translate(1.0575, 0.6481)">
                                            <g id="c" transform="translate(0, 0)">
                                                <polygon id="t" transform="translate(2.1241, 1.6801) rotate(18) translate(-2.1241, -1.6801)" points="1.45746138 0.346764681 1.45746138 3.01343135 2.79079472 3.01343135"></polygon>
                                                <g id="t-link" transform="translate(1.6801, 1.6801) scale(-1, 1) translate(-1.6801, -1.6801)translate(-0, -0)">
                                                    <polygon id="t" transform="translate(1.6801, 1.6801) rotate(18) translate(-1.6801, -1.6801)" points="1.01343135 0.346764681 1.01343135 3.01343135 2.34676468 3.01343135"></polygon>
                                                </g>
                                            </g>
                                        </g>
                                        <g id="c-link" transform="translate(2.5264, 3.6615) rotate(144) translate(-2.5264, -3.6615)translate(0.6243, 1.9814)">
                                            <g id="c" transform="translate(-0, 0)">
                                                <polygon id="t" transform="translate(2.1241, 1.6801) rotate(18) translate(-2.1241, -1.6801)" points="1.45746138 0.346764681 1.45746138 3.01343135 2.79079472 3.01343135"></polygon>
                                                <g id="t-link" transform="translate(1.6801, 1.6801) scale(-1, 1) translate(-1.6801, -1.6801)translate(0, 0)">
                                                    <polygon id="t" transform="translate(1.6801, 1.6801) rotate(18) translate(-1.6801, -1.6801)" points="1.01343135 0.346764681 1.01343135 3.01343135 2.34676468 3.01343135"></polygon>
                                                </g>
                                            </g>
                                        </g>
                                    </g>
                                </g>
                            </g>
                        </g>
                        <g id="s-link" transform="translate(11.0491, 32.5369) rotate(72) translate(-11.0491, -32.5369)translate(7.7292, 29.3795)">
                            <g id="s" transform="translate(-0, 0)">
                                <g id="c" transform="translate(1.4178, -0)">
                                    <polygon id="t" transform="translate(2.1241, 1.6801) rotate(18) translate(-2.1241, -1.6801)" points="1.45746138 0.346764681 1.45746138 3.01343135 2.79079472 3.01343135"></polygon>
                                    <g id="t-link" transform="translate(1.6801, 1.6801) scale(-1, 1) translate(-1.6801, -1.6801)translate(-0, 0)">
                                        <polygon id="t" transform="translate(1.6801, 1.6801) rotate(18) translate(-1.6801, -1.6801)" points="1.01343135 0.346764681 1.01343135 3.01343135 2.34676468 3.01343135"></polygon>
                                    </g>
                                </g>
                                <g id="a" transform="translate(1.4945, 0.176)">
                                    <g id="c-link" transform="translate(2.9596, 2.3282) rotate(72) translate(-2.9596, -2.3282)translate(1.0575, 0.6481)">
                                        <g id="c" transform="translate(-0, 0)">
                                            <polygon id="t" transform="translate(2.1241, 1.6801) rotate(18) translate(-2.1241, -1.6801)" points="1.45746138 0.346764681 1.45746138 3.01343135 2.79079472 3.01343135"></polygon>
                                            <g id="t-link" transform="translate(1.6801, 1.6801) scale(-1, 1) translate(-1.6801, -1.6801)translate(0, 0)">
                                                <polygon id="t" transform="translate(1.6801, 1.6801) rotate(18) translate(-1.6801, -1.6801)" points="1.01343135 0.346764681 1.01343135 3.01343135 2.34676468 3.01343135"></polygon>
                                            </g>
                                        </g>
                                    </g>
                                    <g id="c-link" transform="translate(2.5264, 3.6615) rotate(144) translate(-2.5264, -3.6615)translate(0.6243, 1.9814)">
                                        <g id="c" transform="translate(0, 0)">
                                            <polygon id="t" transform="translate(2.1241, 1.6801) rotate(18) translate(-2.1241, -1.6801)" points="1.45746138 0.346764681 1.45746138 3.01343135 2.79079472 3.01343135"></polygon>
                                            <g id="t-link" transform="translate(1.6801, 1.6801) scale(-1, 1) translate(-1.6801, -1.6801)translate(-0, -0)">
                                                <polygon id="t" transform="translate(1.6801, 1.6801) rotate(18) translate(-1.6801, -1.6801)" points="1.01343135 0.346764681 1.01343135 3.01343135 2.34676468 3.01343135"></polygon>
                                            </g>
                                        </g>
                                    </g>
                                </g>
                                <g id="a-link" transform="translate(2.5726, 3.2454) scale(-1, 1) translate(-2.5726, -3.2454)translate(0, 0.176)">
                                    <g id="a" transform="translate(0, 0)">
                                        <g id="c-link" transform="translate(2.9596, 2.3282) rotate(72) translate(-2.9596, -2.3282)translate(1.0575, 0.6481)">
                                            <g id="c" transform="translate(0, -0)">
                                                <polygon id="t" transform="translate(2.1241, 1.6801) rotate(18) translate(-2.1241, -1.6801)" points="1.45746138 0.346764681 1.45746138 3.01343135 2.79079472 3.01343135"></polygon>
                                                <g id="t-link" transform="translate(1.6801, 1.6801) scale(-1, 1) translate(-1.6801, -1.6801)translate(-0, 0)">
                                                    <polygon id="t" transform="translate(1.6801, 1.6801) rotate(18) translate(-1.6801, -1.6801)" points="1.01343135 0.346764681 1.01343135 3.01343135 2.34676468 3.01343135"></polygon>
                                                </g>
                                            </g>
                                        </g>
                                        <g id="c-link" transform="translate(2.5264, 3.6615) rotate(144) translate(-2.5264, -3.6615)translate(0.6243, 1.9814)">
                                            <g id="c" transform="translate(-0, 0)">
                                                <polygon id="t" transform="translate(2.1241, 1.6801) rotate(18) translate(-2.1241, -1.6801)" points="1.45746138 0.346764681 1.45746138 3.01343135 2.79079472 3.01343135"></polygon>
                                                <g id="t-link" transform="translate(1.6801, 1.6801) scale(-1, 1) translate(-1.6801, -1.6801)translate(-0, 0)">
                                                    <polygon id="t" transform="translate(1.6801, 1.6801) rotate(18) translate(-1.6801, -1.6801)" points="1.01343135 0.346764681 1.01343135 3.01343135 2.34676468 3.01343135"></polygon>
                                                </g>
                                            </g>
                                        </g>
                                    </g>
                                </g>
                            </g>
                        </g>
                    </g>
                    <g id="l-link" transform="translate(30.6253, 18.6152) scale(-1, 1) translate(-30.6253, -18.6152)translate(22.6108, 0.2802)" fill-rule="nonzero">
                        <g id="l" transform="translate(0, 0)">
                            <g id="s-link" transform="translate(-0, 15.7198)">
                                <g id="s" transform="translate(0, -0)">
                                    <g id="c" transform="translate(1.4178, 0)">
                                        <polygon id="t" transform="translate(2.1241, 1.6801) rotate(18) translate(-2.1241, -1.6801)" points="1.45746138 0.346764681 1.45746138 3.01343135 2.79079472 3.01343135"></polygon>
                                        <g id="t-link" transform="translate(1.6801, 1.6801) scale(-1, 1) translate(-1.6801, -1.6801)">
                                            <polygon id="t" transform="translate(1.6801, 1.6801) rotate(18) translate(-1.6801, -1.6801)" points="1.01343135 0.346764681 1.01343135 3.01343135 2.34676468 3.01343135"></polygon>
                                        </g>
                                    </g>
                                    <g id="a" transform="translate(1.4945, 0.176)">
                                        <g id="c-link" transform="translate(2.9596, 2.3282) rotate(72) translate(-2.9596, -2.3282)translate(1.0575, 0.6481)">
                                            <g id="c" transform="translate(-0, -0)">
                                                <polygon id="t" transform="translate(2.1241, 1.6801) rotate(18) translate(-2.1241, -1.6801)" points="1.45746138 0.346764681 1.45746138 3.01343135 2.79079472 3.01343135"></polygon>
                                                <g id="t-link" transform="translate(1.6801, 1.6801) scale(-1, 1) translate(-1.6801, -1.6801)translate(-0, 0)">
                                                    <polygon id="t" transform="translate(1.6801, 1.6801) rotate(18) translate(-1.6801, -1.6801)" points="1.01343135 0.346764681 1.01343135 3.01343135 2.34676468 3.01343135"></polygon>
                                                </g>
                                            </g>
                                        </g>
                                        <g id="c-link" transform="translate(2.5264, 3.6615) rotate(144) translate(-2.5264, -3.6615)translate(0.6243, 1.9814)">
                                            <g id="c" transform="translate(0, 0)">
                                                <polygon id="t" transform="translate(2.1241, 1.6801) rotate(18) translate(-2.1241, -1.6801)" points="1.45746138 0.346764681 1.45746138 3.01343135 2.79079472 3.01343135"></polygon>
                                                <g id="t-link" transform="translate(1.6801, 1.6801) scale(-1, 1) translate(-1.6801, -1.6801)translate(-0, -0)">
                                                    <polygon id="t" transform="translate(1.6801, 1.6801) rotate(18) translate(-1.6801, -1.6801)" points="1.01343135 0.346764681 1.01343135 3.01343135 2.34676468 3.01343135"></polygon>
                                                </g>
                                            </g>
                                        </g>
                                    </g>
                                    <g id="a-link" transform="translate(2.5726, 3.2454) scale(-1, 1) translate(-2.5726, -3.2454)translate(0, 0.176)">
                                        <g id="a" transform="translate(0, 0)">
                                            <g id="c-link" transform="translate(2.9596, 2.3282) rotate(72) translate(-2.9596, -2.3282)translate(1.0575, 0.6481)">
                                                <g id="c" transform="translate(-0, -0)">
                                                    <polygon id="t" transform="translate(2.1241, 1.6801) rotate(18) translate(-2.1241, -1.6801)" points="1.45746138 0.346764681 1.45746138 3.01343135 2.79079472 3.01343135"></polygon>
                                                    <g id="t-link" transform="translate(1.6801, 1.6801) scale(-1, 1) translate(-1.6801, -1.6801)translate(-0, 0)">
                                                        <polygon id="t" transform="translate(1.6801, 1.6801) rotate(18) translate(-1.6801, -1.6801)" points="1.01343135 0.346764681 1.01343135 3.01343135 2.34676468 3.01343135"></polygon>
                                                    </g>
                                                </g>
                                            </g>
                                            <g id="c-link" transform="translate(2.5264, 3.6615) rotate(144) translate(-2.5264, -3.6615)translate(0.6243, 1.9814)">
                                                <g id="c" transform="translate(-0, -0)">
                                                    <polygon id="t" transform="translate(2.1241, 1.6801) rotate(18) translate(-2.1241, -1.6801)" points="1.45746138 0.346764681 1.45746138 3.01343135 2.79079472 3.01343135"></polygon>
                                                    <g id="t-link" transform="translate(1.6801, 1.6801) scale(-1, 1) translate(-1.6801, -1.6801)translate(0, 0)">
                                                        <polygon id="t" transform="translate(1.6801, 1.6801) rotate(18) translate(-1.6801, -1.6801)" points="1.01343135 0.346764681 1.01343135 3.01343135 2.34676468 3.01343135"></polygon>
                                                    </g>
                                                </g>
                                            </g>
                                        </g>
                                    </g>
                                </g>
                            </g>
                            <g id="s-link" transform="translate(11.4872, 4.5057) rotate(-144) translate(-11.4872, -4.5057)translate(8.1673, 1.3484)">
                                <g id="s" transform="translate(0, -0)">
                                    <g id="c" transform="translate(1.4178, 0)">
                                        <polygon id="t" transform="translate(2.1241, 1.6801) rotate(18) translate(-2.1241, -1.6801)" points="1.45746138 0.346764681 1.45746138 3.01343135 2.79079472 3.01343135"></polygon>
                                        <g id="t-link" transform="translate(1.6801, 1.6801) scale(-1, 1) translate(-1.6801, -1.6801)translate(-0, 0)">
                                            <polygon id="t" transform="translate(1.6801, 1.6801) rotate(18) translate(-1.6801, -1.6801)" points="1.01343135 0.346764681 1.01343135 3.01343135 2.34676468 3.01343135"></polygon>
                                        </g>
                                    </g>
                                    <g id="a" transform="translate(1.4945, 0.176)">
                                        <g id="c-link" transform="translate(2.9596, 2.3282) rotate(72) translate(-2.9596, -2.3282)translate(1.0575, 0.6481)">
                                            <g id="c" transform="translate(-0, 0)">
                                                <polygon id="t" transform="translate(2.1241, 1.6801) rotate(18) translate(-2.1241, -1.6801)" points="1.45746138 0.346764681 1.45746138 3.01343135 2.79079472 3.01343135"></polygon>
                                                <g id="t-link" transform="translate(1.6801, 1.6801) scale(-1, 1) translate(-1.6801, -1.6801)translate(0, 0)">
                                                    <polygon id="t" transform="translate(1.6801, 1.6801) rotate(18) translate(-1.6801, -1.6801)" points="1.01343135 0.346764681 1.01343135 3.01343135 2.34676468 3.01343135"></polygon>
                                                </g>
                                            </g>
                                        </g>
                                        <g id="c-link" transform="translate(2.5264, 3.6615) rotate(144) translate(-2.5264, -3.6615)translate(0.6243, 1.9814)">
                                            <g id="c" transform="translate(0, 0)">
                                                <polygon id="t" transform="translate(2.1241, 1.6801) rotate(18) translate(-2.1241, -1.6801)" points="1.45746138 0.346764681 1.45746138 3.01343135 2.79079472 3.01343135"></polygon>
                                                <g id="t-link" transform="translate(1.6801, 1.6801) scale(-1, 1) translate(-1.6801, -1.6801)translate(0, 0)">
                                                    <polygon id="t" transform="translate(1.6801, 1.6801) rotate(18) translate(-1.6801, -1.6801)" points="1.01343135 0.346764681 1.01343135 3.01343135 2.34676468 3.01343135"></polygon>
                                                </g>
                                            </g>
                                        </g>
                                    </g>
                                    <g id="a-link" transform="translate(2.5726, 3.2454) scale(-1, 1) translate(-2.5726, -3.2454)translate(-0, 0.176)">
                                        <g id="a" transform="translate(0, -0)">
                                            <g id="c-link" transform="translate(2.9596, 2.3282) rotate(72) translate(-2.9596, -2.3282)translate(1.0575, 0.6481)">
                                                <g id="c" transform="translate(-0, -0)">
                                                    <polygon id="t" transform="translate(2.1241, 1.6801) rotate(18) translate(-2.1241, -1.6801)" points="1.45746138 0.346764681 1.45746138 3.01343135 2.79079472 3.01343135"></polygon>
                                                    <g id="t-link" transform="translate(1.6801, 1.6801) scale(-1, 1) translate(-1.6801, -1.6801)translate(-0, 0)">
                                                        <polygon id="t" transform="translate(1.6801, 1.6801) rotate(18) translate(-1.6801, -1.6801)" points="1.01343135 0.346764681 1.01343135 3.01343135 2.34676468 3.01343135"></polygon>
                                                    </g>
                                                </g>
                                            </g>
                                            <g id="c-link" transform="translate(2.5264, 3.6615) rotate(144) translate(-2.5264, -3.6615)translate(0.6243, 1.9814)">
                                                <g id="c" transform="translate(-0, -0)">
                                                    <polygon id="t" transform="translate(2.1241, 1.6801) rotate(18) translate(-2.1241, -1.6801)" points="1.45746138 0.346764681 1.45746138 3.01343135 2.79079472 3.01343135"></polygon>
                                                    <g id="t-link" transform="translate(1.6801, 1.6801) scale(-1, 1) translate(-1.6801, -1.6801)translate(-0, -0)">
                                                        <polygon id="t" transform="translate(1.6801, 1.6801) rotate(18) translate(-1.6801, -1.6801)" points="1.01343135 0.346764681 1.01343135 3.01343135 2.34676468 3.01343135"></polygon>
                                                    </g>
                                                </g>
                                            </g>
                                        </g>
                                    </g>
                                </g>
                            </g>
                            <g id="s-link" transform="translate(5.2961, 10.3621) rotate(144) translate(-5.2961, -10.3621)translate(1.9763, 7.2048)">
                                <g id="s" transform="translate(0, 0)">
                                    <g id="c" transform="translate(1.4178, 0)">
                                        <polygon id="t" transform="translate(2.1241, 1.6801) rotate(18) translate(-2.1241, -1.6801)" points="1.45746138 0.346764681 1.45746138 3.01343135 2.79079472 3.01343135"></polygon>
                                        <g id="t-link" transform="translate(1.6801, 1.6801) scale(-1, 1) translate(-1.6801, -1.6801)translate(-0, -0)">
                                            <polygon id="t" transform="translate(1.6801, 1.6801) rotate(18) translate(-1.6801, -1.6801)" points="1.01343135 0.346764681 1.01343135 3.01343135 2.34676468 3.01343135"></polygon>
                                        </g>
                                    </g>
                                    <g id="a" transform="translate(1.4945, 0.176)">
                                        <g id="c-link" transform="translate(2.9596, 2.3282) rotate(72) translate(-2.9596, -2.3282)translate(1.0575, 0.6481)">
                                            <g id="c" transform="translate(0, 0)">
                                                <polygon id="t" transform="translate(2.1241, 1.6801) rotate(18) translate(-2.1241, -1.6801)" points="1.45746138 0.346764681 1.45746138 3.01343135 2.79079472 3.01343135"></polygon>
                                                <g id="t-link" transform="translate(1.6801, 1.6801) scale(-1, 1) translate(-1.6801, -1.6801)translate(0, 0)">
                                                    <polygon id="t" transform="translate(1.6801, 1.6801) rotate(18) translate(-1.6801, -1.6801)" points="1.01343135 0.346764681 1.01343135 3.01343135 2.34676468 3.01343135"></polygon>
                                                </g>
                                            </g>
                                        </g>
                                        <g id="c-link" transform="translate(2.5264, 3.6615) rotate(144) translate(-2.5264, -3.6615)translate(0.6243, 1.9814)">
                                            <g id="c" transform="translate(0, 0)">
                                                <polygon id="t" transform="translate(2.1241, 1.6801) rotate(18) translate(-2.1241, -1.6801)" points="1.45746138 0.346764681 1.45746138 3.01343135 2.79079472 3.01343135"></polygon>
                                                <g id="t-link" transform="translate(1.6801, 1.6801) scale(-1, 1) translate(-1.6801, -1.6801)translate(-0, -0)">
                                                    <polygon id="t" transform="translate(1.6801, 1.6801) rotate(18) translate(-1.6801, -1.6801)" points="1.01343135 0.346764681 1.01343135 3.01343135 2.34676468 3.01343135"></polygon>
                                                </g>
                                            </g>
                                        </g>
                                    </g>
                                    <g id="a-link" transform="translate(2.5726, 3.2454) scale(-1, 1) translate(-2.5726, -3.2454)translate(-0, 0.176)">
                                        <g id="a" transform="translate(-0, 0)">
                                            <g id="c-link" transform="translate(2.9596, 2.3282) rotate(72) translate(-2.9596, -2.3282)translate(1.0575, 0.6481)">
                                                <g id="c" transform="translate(0, 0)">
                                                    <polygon id="t" transform="translate(2.1241, 1.6801) rotate(18) translate(-2.1241, -1.6801)" points="1.45746138 0.346764681 1.45746138 3.01343135 2.79079472 3.01343135"></polygon>
                                                    <g id="t-link" transform="translate(1.6801, 1.6801) scale(-1, 1) translate(-1.6801, -1.6801)translate(-0, -0)">
                                                        <polygon id="t" transform="translate(1.6801, 1.6801) rotate(18) translate(-1.6801, -1.6801)" points="1.01343135 0.346764681 1.01343135 3.01343135 2.34676468 3.01343135"></polygon>
                                                    </g>
                                                </g>
                                            </g>
                                            <g id="c-link" transform="translate(2.5264, 3.6615) rotate(144) translate(-2.5264, -3.6615)translate(0.6243, 1.9814)">
                                                <g id="c" transform="translate(0, -0)">
                                                    <polygon id="t" transform="translate(2.1241, 1.6801) rotate(18) translate(-2.1241, -1.6801)" points="1.45746138 0.346764681 1.45746138 3.01343135 2.79079472 3.01343135"></polygon>
                                                    <g id="t-link" transform="translate(1.6801, 1.6801) scale(-1, 1) translate(-1.6801, -1.6801)translate(0, 0)">
                                                        <polygon id="t" transform="translate(1.6801, 1.6801) rotate(18) translate(-1.6801, -1.6801)" points="1.01343135 0.346764681 1.01343135 3.01343135 2.34676468 3.01343135"></polygon>
                                                    </g>
                                                </g>
                                            </g>
                                        </g>
                                    </g>
                                </g>
                            </g>
                            <g id="s-link" transform="translate(5.1927, 26.6805) rotate(72) translate(-5.1927, -26.6805)translate(1.8728, 23.5231)">
                                <g id="s" transform="translate(-0, 0)">
                                    <g id="c" transform="translate(1.4178, 0)">
                                        <polygon id="t" transform="translate(2.1241, 1.6801) rotate(18) translate(-2.1241, -1.6801)" points="1.45746138 0.346764681 1.45746138 3.01343135 2.79079472 3.01343135"></polygon>
                                        <g id="t-link" transform="translate(1.6801, 1.6801) scale(-1, 1) translate(-1.6801, -1.6801)translate(-0, 0)">
                                            <polygon id="t" transform="translate(1.6801, 1.6801) rotate(18) translate(-1.6801, -1.6801)" points="1.01343135 0.346764681 1.01343135 3.01343135 2.34676468 3.01343135"></polygon>
                                        </g>
                                    </g>
                                    <g id="a" transform="translate(1.4945, 0.176)">
                                        <g id="c-link" transform="translate(2.9596, 2.3282) rotate(72) translate(-2.9596, -2.3282)translate(1.0575, 0.6481)">
                                            <g id="c" transform="translate(0, -0)">
                                                <polygon id="t" transform="translate(2.1241, 1.6801) rotate(18) translate(-2.1241, -1.6801)" points="1.45746138 0.346764681 1.45746138 3.01343135 2.79079472 3.01343135"></polygon>
                                                <g id="t-link" transform="translate(1.6801, 1.6801) scale(-1, 1) translate(-1.6801, -1.6801)translate(-0, 0)">
                                                    <polygon id="t" transform="translate(1.6801, 1.6801) rotate(18) translate(-1.6801, -1.6801)" points="1.01343135 0.346764681 1.01343135 3.01343135 2.34676468 3.01343135"></polygon>
                                                </g>
                                            </g>
                                        </g>
                                        <g id="c-link" transform="translate(2.5264, 3.6615) rotate(144) translate(-2.5264, -3.6615)translate(0.6243, 1.9814)">
                                            <g id="c" transform="translate(-0, 0)">
                                                <polygon id="t" transform="translate(2.1241, 1.6801) rotate(18) translate(-2.1241, -1.6801)" points="1.45746138 0.346764681 1.45746138 3.01343135 2.79079472 3.01343135"></polygon>
                                                <g id="t-link" transform="translate(1.6801, 1.6801) scale(-1, 1) translate(-1.6801, -1.6801)translate(0, 0)">
                                                    <polygon id="t" transform="translate(1.6801, 1.6801) rotate(18) translate(-1.6801, -1.6801)" points="1.01343135 0.346764681 1.01343135 3.01343135 2.34676468 3.01343135"></polygon>
                                                </g>
                                            </g>
                                        </g>
                                    </g>
                                    <g id="a-link" transform="translate(2.5726, 3.2454) scale(-1, 1) translate(-2.5726, -3.2454)translate(0, 0.176)">
                                        <g id="a" transform="translate(0, 0)">
                                            <g id="c-link" transform="translate(2.9596, 2.3282) rotate(72) translate(-2.9596, -2.3282)translate(1.0575, 0.6481)">
                                                <g id="c" transform="translate(0, 0)">
                                                    <polygon id="t" transform="translate(2.1241, 1.6801) rotate(18) translate(-2.1241, -1.6801)" points="1.45746138 0.346764681 1.45746138 3.01343135 2.79079472 3.01343135"></polygon>
                                                    <g id="t-link" transform="translate(1.6801, 1.6801) scale(-1, 1) translate(-1.6801, -1.6801)translate(-0, -0)">
                                                        <polygon id="t" transform="translate(1.6801, 1.6801) rotate(18) translate(-1.6801, -1.6801)" points="1.01343135 0.346764681 1.01343135 3.01343135 2.34676468 3.01343135"></polygon>
                                                    </g>
                                                </g>
                                            </g>
                                            <g id="c-link" transform="translate(2.5264, 3.6615) rotate(144) translate(-2.5264, -3.6615)translate(0.6243, 1.9814)">
                                                <g id="c" transform="translate(0, -0)">
                                                    <polygon id="t" transform="translate(2.1241, 1.6801) rotate(18) translate(-2.1241, -1.6801)" points="1.45746138 0.346764681 1.45746138 3.01343135 2.79079472 3.01343135"></polygon>
                                                    <g id="t-link" transform="translate(1.6801, 1.6801) scale(-1, 1) translate(-1.6801, -1.6801)translate(-0, -0)">
                                                        <polygon id="t" transform="translate(1.6801, 1.6801) rotate(18) translate(-1.6801, -1.6801)" points="1.01343135 0.346764681 1.01343135 3.01343135 2.34676468 3.01343135"></polygon>
                                                    </g>
                                                </g>
                                            </g>
                                        </g>
                                    </g>
                                </g>
                            </g>
                            <g id="s-link" transform="translate(11.0491, 32.5369) rotate(72) translate(-11.0491, -32.5369)translate(7.7292, 29.3795)">
                                <g id="s" transform="translate(-0, -0)">
                                    <g id="c" transform="translate(1.4178, 0)">
                                        <polygon id="t" transform="translate(2.1241, 1.6801) rotate(18) translate(-2.1241, -1.6801)" points="1.45746138 0.346764681 1.45746138 3.01343135 2.79079472 3.01343135"></polygon>
                                        <g id="t-link" transform="translate(1.6801, 1.6801) scale(-1, 1) translate(-1.6801, -1.6801)translate(-0, 0)">
                                            <polygon id="t" transform="translate(1.6801, 1.6801) rotate(18) translate(-1.6801, -1.6801)" points="1.01343135 0.346764681 1.01343135 3.01343135 2.34676468 3.01343135"></polygon>
                                        </g>
                                    </g>
                                    <g id="a" transform="translate(1.4945, 0.176)">
                                        <g id="c-link" transform="translate(2.9596, 2.3282) rotate(72) translate(-2.9596, -2.3282)translate(1.0575, 0.6481)">
                                            <g id="c" transform="translate(0, 0)">
                                                <polygon id="t" transform="translate(2.1241, 1.6801) rotate(18) translate(-2.1241, -1.6801)" points="1.45746138 0.346764681 1.45746138 3.01343135 2.79079472 3.01343135"></polygon>
                                                <g id="t-link" transform="translate(1.6801, 1.6801) scale(-1, 1) translate(-1.6801, -1.6801)translate(0, 0)">
                                                    <polygon id="t" transform="translate(1.6801, 1.6801) rotate(18) translate(-1.6801, -1.6801)" points="1.01343135 0.346764681 1.01343135 3.01343135 2.34676468 3.01343135"></polygon>
                                                </g>
                                            </g>
                                        </g>
                                        <g id="c-link" transform="translate(2.5264, 3.6615) rotate(144) translate(-2.5264, -3.6615)translate(0.6243, 1.9814)">
                                            <g id="c" transform="translate(0, -0)">
                                                <polygon id="t" transform="translate(2.1241, 1.6801) rotate(18) translate(-2.1241, -1.6801)" points="1.45746138 0.346764681 1.45746138 3.01343135 2.79079472 3.01343135"></polygon>
                                                <g id="t-link" transform="translate(1.6801, 1.6801) scale(-1, 1) translate(-1.6801, -1.6801)translate(-0, -0)">
                                                    <polygon id="t" transform="translate(1.6801, 1.6801) rotate(18) translate(-1.6801, -1.6801)" points="1.01343135 0.346764681 1.01343135 3.01343135 2.34676468 3.01343135"></polygon>
                                                </g>
                                            </g>
                                        </g>
                                    </g>
                                    <g id="a-link" transform="translate(2.5726, 3.2454) scale(-1, 1) translate(-2.5726, -3.2454)translate(0, 0.176)">
                                        <g id="a" transform="translate(0, 0)">
                                            <g id="c-link" transform="translate(2.9596, 2.3282) rotate(72) translate(-2.9596, -2.3282)translate(1.0575, 0.6481)">
                                                <g id="c" transform="translate(0, 0)">
                                                    <polygon id="t" transform="translate(2.1241, 1.6801) rotate(18) translate(-2.1241, -1.6801)" points="1.45746138 0.346764681 1.45746138 3.01343135 2.79079472 3.01343135"></polygon>
                                                    <g id="t-link" transform="translate(1.6801, 1.6801) scale(-1, 1) translate(-1.6801, -1.6801)translate(-0, -0)">
                                                        <polygon id="t" transform="translate(1.6801, 1.6801) rotate(18) translate(-1.6801, -1.6801)" points="1.01343135 0.346764681 1.01343135 3.01343135 2.34676468 3.01343135"></polygon>
                                                    </g>
                                                </g>
                                            </g>
                                            <g id="c-link" transform="translate(2.5264, 3.6615) rotate(144) translate(-2.5264, -3.6615)translate(0.6243, 1.9814)">
                                                <g id="c" transform="translate(0, -0)">
                                                    <polygon id="t" transform="translate(2.1241, 1.6801) rotate(18) translate(-2.1241, -1.6801)" points="1.45746138 0.346764681 1.45746138 3.01343135 2.79079472 3.01343135"></polygon>
                                                    <g id="t-link" transform="translate(1.6801, 1.6801) scale(-1, 1) translate(-1.6801, -1.6801)translate(-0, 0)">
                                                        <polygon id="t" transform="translate(1.6801, 1.6801) rotate(18) translate(-1.6801, -1.6801)" points="1.01343135 0.346764681 1.01343135 3.01343135 2.34676468 3.01343135"></polygon>
                                                    </g>
                                                </g>
                                            </g>
                                        </g>
                                    </g>
                                </g>
                            </g>
                        </g>
                    </g>
                </g>
            </g>
        </g>
    </g>
</svg>