<?xml version="1.0" encoding="UTF-8"?>
<!-- Generated by Pixelmator Pro 3.6.18 -->
<svg width="29" height="29" viewBox="0 0 29 29" xmlns="http://www.w3.org/2000/svg">
    <g id="New">
        <path id="Force-new" fill="#000000" fill-rule="evenodd" stroke="none" d="M 19.692503 25.996202 L 13.64455 18.029799 C 13.253949 17.5151 13.18855 16.8237 13.47565 16.2451 C 13.762751 15.6665 14.35305 15.3008 14.99905 15.3008 L 17.288151 15.3008 L 17.288151 8.996632 L 16.126581 8.996632 C 17.063269 8.371201 17.681192 7.305981 17.681192 6.095177 C 17.681192 4.168747 16.119518 2.607067 14.193089 2.607067 C 12.266678 2.607067 10.704983 4.168747 10.704983 6.095177 C 10.704983 7.305981 11.322915 8.371201 12.259603 8.996632 L 5.702939 8.996632 L 2.012051 26.017933 L 19.710464 26.017933 C 19.703953 26.010632 19.697958 26.003387 19.692503 25.996202 Z M 18.988943 17.001646 L 18.988943 8.998278 L 24.011009 9.02953 L 24.011009 17.032896 L 28.000669 17.001646 L 21.499971 25.564222 L 14.999331 17.001646 L 18.988943 17.001646 Z M 16.409895 6.093313 C 16.409895 4.869408 15.417738 3.877239 14.193831 3.877239 C 12.969925 3.877239 11.97775 4.869408 11.97775 6.093313 C 11.97775 7.317219 12.969925 8.309387 14.193831 8.309387 C 15.417738 8.309387 16.409895 7.317219 16.409895 6.093313 Z"/>
    </g>
</svg>
