<?xml version="1.0" encoding="UTF-8"?>
<!-- Generated by Pixelmator Pro 3.6.18 -->
<svg width="48" height="48" viewBox="0 0 48 48" xmlns="http://www.w3.org/2000/svg">
    <g id="New">
        <path id="Length" fill="#000000" fill-rule="evenodd" stroke="none" d="M 4.965517 26.482759 L 8.275861 26.482759 L 8.275861 31.448277 L 9.931034 31.448277 L 9.931034 26.482759 L 11.586207 26.482759 L 11.586207 29.793104 L 13.241381 29.793104 L 13.241381 26.482759 L 14.896552 26.482759 L 14.896552 31.448277 L 16.551723 31.448277 L 16.551723 26.482759 L 18.206898 26.482759 L 18.206898 29.793104 L 19.862068 29.793104 L 19.862068 26.482759 L 21.517241 26.482759 L 21.517241 31.448277 L 23.172415 31.448277 L 23.172415 26.482759 L 24.827585 26.482759 L 24.827585 29.793104 L 26.482759 29.793104 L 26.482759 26.482759 L 28.137932 26.482759 L 28.137932 31.448277 L 29.793104 31.448277 L 29.793104 26.482759 L 31.448277 26.482759 L 31.448277 29.793104 L 33.103447 29.793104 L 33.103447 26.482759 L 34.758621 26.482759 L 34.758621 31.448277 L 36.413792 31.448277 L 36.413792 26.482759 L 38.068966 26.482759 L 38.068966 29.793104 L 39.724136 29.793104 L 39.724136 26.482759 L 43.034481 26.482759 C 43.948608 26.482759 44.689655 27.223803 44.689655 28.137932 L 44.689655 33.103447 C 44.689655 34.017574 43.948608 34.758621 43.034481 34.758621 L 4.965517 34.758621 C 4.051392 34.758621 3.310344 34.017574 3.310344 33.103447 L 3.310344 28.137932 C 3.310344 27.223803 4.051392 26.482759 4.965517 26.482759 Z M 44.689655 16.552235 L 36.427578 20.58009 L 36.427578 18.206934 L 33.117233 18.206934 L 30.346622 18.206934 L 27.605242 18.206934 L 20.394756 18.206934 L 17.653378 18.206934 L 14.882764 18.206934 L 11.57242 18.206934 L 11.57242 20.58009 L 3.310344 16.552235 L 11.57242 12.523357 L 11.57242 14.897488 L 14.895613 14.897488 L 17.653378 14.897488 L 20.394756 14.897488 L 27.605242 14.897488 L 30.346622 14.897488 L 33.104385 14.897488 L 36.427578 14.897488 L 36.427578 12.523357 Z"/>
    </g>
</svg>
