<?xml version="1.0" encoding="UTF-8"?>
<!-- Generated by Pixelmator Pro 3.6.18 -->
<svg width="48" height="48" viewBox="0 0 48 48" xmlns="http://www.w3.org/2000/svg">
    <g id="New">
        <path id="Male-shirt" fill="#0f0707" fill-rule="evenodd" stroke="none" d="M 27.442215 10.402306 C 27.442215 10.402306 30.662857 9.701519 32.267963 13.714283 C 33.302444 16.300491 37.026588 36.886696 37.026588 36.886696 L 30.302446 36.886696 L 28.890747 21.191523 C 28.687168 24.368723 28.477217 28.421846 28.477217 31.651466 C 28.477217 35.385704 29.267963 39.369461 29.267963 39.369461 C 29.267963 39.369461 25.0014 40.397011 20.577141 40.489895 L 20.578312 40.507385 C 20.474409 40.507385 20.371849 40.499741 20.267965 40.498623 C 20.164083 40.499741 20.061522 40.507385 19.957621 40.507385 L 19.958788 40.489895 C 15.534531 40.397011 11.267964 39.369461 11.267964 39.369461 C 11.267964 39.369461 12.058717 35.385704 12.058717 31.651466 C 12.058717 28.421846 11.848763 24.368723 11.645185 21.191523 L 10.233481 36.886696 L 3.509345 36.886696 C 3.509345 36.886696 7.233481 16.300491 8.267964 13.714283 C 9.873073 9.701519 13.093715 10.402306 13.093715 10.402306 C 14.592538 4.849606 25.943394 4.849606 27.442215 10.402306 Z M 20.319689 12.231956 L 20.319689 40.300491 L 21.147276 40.300491 L 21.147276 12.790577 L 20.319689 12.231956 Z M 20.319689 12.231956 L 20.319689 12.059113 L 21.147276 12.059113 L 21.147276 12.790577 L 26.474861 16.386696 L 25.233482 9.248764 C 25.233482 9.248764 24.923138 7.3867 20.267965 7.3867 C 15.612794 7.3867 15.302447 9.197044 15.302447 9.197044 L 13.543829 16.179802 L 20.267965 12.197044 L 20.319689 12.231956 Z M 19.440378 33.421181 L 18.457621 33.421181 L 18.457621 34.403938 L 19.440378 34.403938 L 19.440378 33.421181 Z M 18.457621 30.110836 L 19.440378 30.110836 L 19.440378 31.093594 L 18.457621 31.093594 L 18.457621 30.110836 Z M 19.440378 26.800491 L 18.457621 26.800491 L 18.457621 27.783249 L 19.440378 27.783249 L 19.440378 26.800491 Z M 18.457621 23.490147 L 19.440378 23.490147 L 19.440378 24.472904 L 18.457621 24.472904 L 18.457621 23.490147 Z M 19.440378 20.179802 L 18.457621 20.179802 L 18.457621 21.16256 L 19.440378 21.16256 L 19.440378 20.179802 Z M 42.074944 12.228302 C 41.336224 11.575787 40.365578 11.179806 39.302444 11.179806 C 36.988567 11.179806 35.112793 13.055576 35.112793 15.369457 C 35.112793 17.683342 36.988567 19.559114 39.302444 19.559114 C 41.616329 19.559114 43.492104 17.683342 43.492104 15.369457 C 43.492104 14.721874 43.345181 14.108604 43.082848 13.561169 L 45.095554 11.548462 L 45.095554 13.766014 C 45.095554 14.223076 45.466076 14.593597 45.923138 14.593597 C 46.380203 14.593597 46.750721 14.223076 46.750721 13.766014 L 46.750721 10.072044 C 46.841171 9.969566 46.906639 9.844517 46.937592 9.706421 L 47.175636 9.468376 C 47.498829 9.145184 47.498829 8.621185 47.175636 8.297993 C 46.966736 8.089092 46.673943 8.015217 46.405716 8.07637 C 46.269871 7.978703 46.103222 7.921185 45.923138 7.921185 C 45.483448 7.921185 45.123844 8.264072 45.097145 8.697044 L 41.992104 8.697044 C 41.535042 8.697044 41.164516 9.06757 41.164516 9.524632 C 41.164516 9.981693 41.535042 10.352215 41.992104 10.352215 L 43.951031 10.352215 L 42.074944 12.228302 Z M 41.123619 13.625542 C 40.664635 13.146351 40.018383 12.847973 39.302444 12.847973 C 37.90987 12.847973 36.78096 13.976883 36.78096 15.369457 C 36.78096 16.762037 37.90987 17.890945 39.302444 17.890945 C 40.695023 17.890945 41.823933 16.762037 41.823933 15.369457 C 41.823933 14.973755 41.732784 14.599339 41.570332 14.266064 C 41.494625 14.227562 41.423607 14.176651 41.360294 14.113338 C 41.223515 13.976559 41.144623 13.80381 41.123619 13.625542 Z M 18.457621 16.869457 L 19.440378 16.869457 L 19.440378 17.852215 L 18.457621 17.852215 L 18.457621 16.869457 Z M 15.709654 14.057537 L 20.235126 11.377068 L 24.412485 14.196781 L 23.577013 9.392822 C 23.577013 9.392822 23.368143 8.139614 20.235126 8.139614 C 17.102104 8.139614 16.89324 9.358009 16.89324 9.358009 L 15.709654 14.057537 Z"/>
    </g>
</svg>
