<?xml version="1.0" encoding="UTF-8"?>
<!-- Generated by Pixelmator Pro 3.6.18 -->
<svg width="48" height="48" viewBox="0 0 48 48" xmlns="http://www.w3.org/2000/svg">
    <g id="New">
        <path id="Power" fill="#000000" fill-rule="evenodd" stroke="none" d="M 14.688249 8.566845 C 8.761027 11.719021 4.735723 17.884556 4.7336 24.958994 C 4.735723 35.26004 13.259889 43.606285 23.776577 43.608017 C 34.295475 43.606285 42.820084 35.26004 42.820084 24.958994 C 42.820084 17.854141 38.761509 11.669979 32.79332 8.527943 C 31.573242 7.8848 30.052416 8.330719 29.396589 9.525661 C 28.738548 10.720524 29.195646 12.20982 30.41581 12.853828 L 30.41581 12.852097 C 34.81699 15.177513 37.804932 19.720907 37.804932 24.958994 C 37.789799 32.54364 31.523516 38.682144 23.776577 38.694878 C 16.031849 38.682144 9.76335 32.54364 9.750873 24.958994 C 9.748661 19.742046 12.714223 15.213043 17.086464 12.880863 C 18.302645 12.231834 18.752398 10.740795 18.090998 9.549316 C 17.427383 8.357838 15.904876 7.917816 14.688249 8.566845 Z M 22.178644 5.547371 L 22.178644 16.395535 C 22.178644 17.344349 22.932608 18.111568 23.802029 18.111568 C 24.671179 18.111568 25.375814 17.344349 25.375814 16.395535 L 25.375814 5.547371 C 25.375814 4.599159 24.671179 3.83073 23.802029 3.83073 C 22.932608 3.83073 22.178644 4.599159 22.178644 5.547371 Z"/>
    </g>
</svg>
