<?xml version="1.0" encoding="UTF-8"?>
<!-- Generated by Pixelmator Pro 3.6.18 -->
<svg width="48" height="48" viewBox="0 0 48 48" xmlns="http://www.w3.org/2000/svg">
    <g id="New">
        <path id="Pressure" fill="#0f0707" fill-rule="evenodd" stroke="none" d="M 26.498598 31.357986 L 26.498598 37.992645 L 21.501394 37.992645 L 21.501394 31.357986 L 19.146061 31.357986 L 24 24.748732 L 28.957344 31.357986 L 26.498598 31.357986 Z M 8.274596 26.472736 L 14.909257 26.472736 L 14.909257 28.931482 L 21.518509 23.97414 L 14.909257 19.120201 L 14.909257 21.578979 L 8.274596 21.578979 L 8.274596 26.472736 Z M 39.725403 26.472736 L 33.090744 26.472736 L 33.090744 28.931482 L 26.481491 23.97414 L 33.090744 19.120201 L 33.090744 21.578979 L 39.725403 21.578979 L 39.725403 26.472736 Z M 21.501402 8.300453 L 21.501402 14.935116 L 19.042656 14.935116 L 24 21.544369 L 28.853939 14.935116 L 26.498608 14.935116 L 26.498608 8.300453 L 21.501402 8.300453 Z"/>
    </g>
</svg>
