<?xml version="1.0" encoding="UTF-8"?>
<!-- Generated by Pixelmator Pro 3.6.18 -->
<svg width="48" height="48" viewBox="0 0 48 48" xmlns="http://www.w3.org/2000/svg">
    <g id="New">
        <path id="Sound" fill="#000000" fill-rule="evenodd" stroke="none" d="M 3.310344 16.888695 L 9.931034 16.888695 L 9.931034 30.130072 L 3.310344 30.130072 Z M 9.931034 16.888695 L 23.172415 8.612831 L 23.172415 38.405933 L 9.931034 30.130072 Z M 29.239639 37.886585 C 28.089838 37.083374 27.805433 35.501316 28.609541 34.351513 L 28.609541 34.351513 C 28.606138 34.347927 28.609541 34.351513 28.661156 34.264061 L 28.661156 34.264061 C 28.719934 34.171227 28.812586 34.011913 28.92979 33.794891 L 28.92979 33.794891 C 29.166162 33.357441 29.4977 32.671429 29.833717 31.756208 L 29.833717 31.756208 C 30.504137 29.917709 31.200544 27.160404 31.200544 23.551674 L 31.200544 23.551674 C 31.197138 17.243525 29.081221 13.797699 28.705059 13.221901 L 28.705059 13.221901 C 28.689289 13.19735 28.679613 13.182476 28.673521 13.172798 L 28.673521 13.172798 C 28.476568 12.914738 28.327827 12.618866 28.240372 12.297005 L 28.240372 12.297005 C 28.239475 12.294315 28.238579 12.29163 28.238579 12.288219 L 28.238579 12.288219 C 28.224604 12.23661 28.212414 12.184105 28.201841 12.130699 L 28.201841 12.130699 C 28.20005 12.123711 28.198257 12.115822 28.197542 12.108837 L 28.197542 12.108837 C 28.193958 12.09127 28.190372 12.073708 28.187864 12.055431 L 28.187864 12.055431 C 28.186071 12.045753 28.184278 12.036079 28.182665 12.025681 L 28.182665 12.025681 C 28.180876 12.010811 28.178186 11.995934 28.176395 11.981956 L 28.176395 11.981956 C 28.172989 11.955612 28.169407 11.930344 28.166897 11.903999 L 28.166897 11.903999 C 28.166 11.8997 28.166 11.894321 28.165104 11.889126 L 28.165104 11.889126 C 28.163313 11.869949 28.16152 11.850594 28.159906 11.830528 L 28.159906 11.830528 C 28.159906 11.828732 28.159906 11.826939 28.159906 11.826939 L 28.159906 11.825325 C 28.158113 11.80167 28.156324 11.778015 28.155428 11.753464 L 28.155428 11.753464 C 28.15453 11.736977 28.153633 11.722103 28.153633 11.709736 L 28.153633 11.709736 C 28.140551 11.297558 28.228006 10.881077 28.417969 10.497749 L 28.417969 10.497749 C 28.849323 9.635036 29.730494 9.089886 30.692125 9.089886 L 30.692125 9.089886 C 31.101799 9.078594 31.750175 9.22644 32.251602 9.624466 L 32.251602 9.624466 C 32.448372 9.776794 32.605 9.945606 32.729374 10.112808 L 32.729374 10.112808 C 33.034744 10.512623 36.284695 15.101444 36.281113 23.551674 L 36.281113 23.551674 C 36.281113 32.099216 32.974354 36.97316 32.779194 37.256664 L 32.779194 37.256664 C 32.283859 37.965439 31.493727 38.345181 30.690514 38.345181 L 30.690514 38.345181 C 30.189089 38.345181 29.682463 38.196438 29.239639 37.886585 Z M 28.493235 12.900761 C 28.490547 12.897175 28.488935 12.893768 28.487141 12.890186 L 28.487141 12.890186 C 28.488935 12.893768 28.490547 12.897175 28.493235 12.900761 Z M 28.463486 12.848251 C 28.409185 12.750225 28.362055 12.649509 28.321733 12.545387 L 28.321733 12.545387 C 28.358469 12.640728 28.404886 12.742336 28.463486 12.848251 Z M 28.31743 12.533203 C 28.311159 12.516533 28.305065 12.49987 28.298973 12.483379 L 28.298973 12.483379 C 28.305065 12.49897 28.311159 12.516533 28.31743 12.533203 Z M 37.359951 41.910179 C 36.282906 41.010551 36.135773 39.405739 37.0354 38.332993 L 37.0354 38.332993 C 37.0354 38.329411 37.05386 38.31543 37.1535 38.175468 L 37.1535 38.175468 C 37.256725 38.035507 37.418728 37.809704 37.613888 37.503437 L 37.613888 37.503437 C 38.012806 36.883911 38.561546 35.933567 39.115299 34.671761 L 39.115299 34.671761 C 40.221375 32.146351 41.352898 28.388878 41.352898 23.492178 L 41.352898 23.492178 C 41.349316 16.275797 38.904549 11.788589 37.713528 10.006897 L 37.713528 10.006897 C 37.418728 9.56945 37.220882 9.318195 37.13773 9.219452 L 37.13773 9.219452 C 36.744007 8.802074 36.489353 8.250648 36.450821 7.641697 L 36.450821 7.641697 C 36.445625 7.578617 36.445625 7.536682 36.445625 7.510521 L 36.445625 7.510521 C 36.445625 7.499943 36.445625 7.488472 36.445625 7.478081 L 36.445625 7.478081 L 36.447418 7.478081 C 36.446522 7.19278 36.493832 6.904972 36.592575 6.625763 L 36.592575 6.625763 C 36.950455 5.615925 37.912987 4.933495 38.985909 4.933495 L 38.985909 4.933495 C 39.395401 4.922028 40.043781 5.069874 40.546101 5.468075 L 40.546101 5.468075 C 40.707027 5.593163 40.840897 5.728825 40.952904 5.865379 L 40.952904 5.865379 C 40.960793 5.874161 40.968674 5.882946 40.977455 5.892441 L 40.977455 5.892441 C 41.032654 5.958031 41.102543 6.042976 41.187489 6.150677 L 41.187489 6.150677 C 41.357201 6.364117 41.585693 6.666981 41.850742 7.057117 L 41.850742 7.057117 C 42.385319 7.839367 43.07151 8.97089 43.749638 10.457603 L 43.749638 10.457603 C 45.110367 13.422256 46.434185 17.806242 46.434185 23.492178 L 46.434185 23.492178 C 46.427197 34.888779 41.161148 41.316822 40.939823 41.586349 L 40.939823 41.586349 C 40.436604 42.188313 39.712959 42.499958 38.984116 42.499958 L 38.984116 42.499958 C 38.411007 42.499958 37.834312 42.307308 37.359951 41.910179 Z M 36.910313 8.935944 C 36.688812 8.620895 36.543652 8.261223 36.481468 7.886677 L 36.481468 7.886677 L 36.478779 7.886677 C 36.515694 8.076637 36.590065 8.487923 36.910313 8.935944 Z"/>
    </g>
</svg>
