<?xml version="1.0" encoding="UTF-8"?>
<!-- Generated by Pixelmator Pro 3.6.18 -->
<svg width="48" height="48" viewBox="0 0 48 48" xmlns="http://www.w3.org/2000/svg">
    <g id="New">
        <path id="Speed" fill="#000000" fill-rule="evenodd" stroke="none" d="M 44.693344 24.160486 C 44.693344 12.62804 35.344437 3.279137 23.811993 3.279137 C 12.279548 3.279137 2.930649 12.62804 2.930649 24.160486 C 2.930649 35.692932 12.279548 45.041832 23.811993 45.041832 C 35.344437 45.041832 44.693344 35.692932 44.693344 24.160486 Z M 30.606342 9.294487 C 28.945269 8.533665 27.134611 8.043056 25.230623 7.878914 L 25.230623 12.252876 L 22.253717 12.252876 L 22.253717 7.890865 C 20.358257 8.069733 18.55702 8.572334 16.905886 9.342793 L 19.077404 13.10397 L 16.499331 14.592419 L 14.334366 10.84259 C 12.824663 11.918484 11.505675 13.244675 10.437968 14.760586 L 14.174106 16.917645 L 12.685653 19.49572 L 8.952504 17.340384 C 8.194744 18.988255 7.7031 20.783823 7.532623 22.672033 L 11.834561 22.672033 L 11.834561 25.648935 L 7.532622 25.648935 C 7.703099 27.537148 8.194745 29.332716 8.952505 30.980589 L 12.685653 28.825253 L 14.174106 31.403326 L 10.437969 33.560387 C 13.395672 37.759686 18.281637 40.503086 23.808357 40.503086 C 29.311235 40.503086 34.178879 37.783302 37.140362 33.614651 L 33.310238 31.403326 L 34.798691 28.825253 L 38.636322 31.040911 C 39.409912 29.37657 39.911533 27.560213 40.084091 25.648935 L 35.64978 25.648935 L 35.64978 22.672033 L 40.084091 22.672033 C 39.91153 20.760756 39.409912 18.944401 38.636322 17.280062 L 34.798691 19.49572 L 33.310238 16.917645 L 37.140362 14.706322 C 36.646873 14.011677 36.10046 13.357265 35.506996 12.748966 L 26.455723 25.420748 C 26.305031 25.738693 26.099092 26.025354 25.850304 26.268335 L 25.844044 26.2771 L 25.84269 26.275745 C 25.312307 26.790041 24.589111 27.106627 23.791971 27.106627 C 22.164867 27.106627 20.845837 25.787596 20.845837 24.160486 C 20.845837 23.363348 21.162418 22.640152 21.676712 22.10977 L 21.634069 22.067127 L 35.161201 12.404888 C 34.547848 11.81242 33.888252 11.267513 33.188358 10.776108 L 30.98501 14.592419 L 28.406939 13.10397 L 30.606342 9.294487 Z"/>
    </g>
</svg>
