<?xml version="1.0" encoding="UTF-8"?>
<!-- Generated by Pixelmator Pro 3.6.18 -->
<svg width="48" height="48" viewBox="0 0 48 48" xmlns="http://www.w3.org/2000/svg">
    <g id="New">
        <path id="Temperature" fill="#000000" fill-rule="evenodd" stroke="none" d="M 24.270559 45.395626 C 18.653694 45.395626 14.100336 41.00618 14.100336 35.591537 C 14.100336 32.629959 15.464454 29.977194 17.617775 28.179508 L 17.617775 9.580303 C 17.617775 6.038349 20.596327 3.167019 24.270559 3.167019 C 27.944792 3.167019 30.923342 6.038349 30.923342 9.580303 L 30.923342 28.179508 C 33.076668 29.977194 34.440781 32.629959 34.440781 35.591537 C 34.440781 41.00618 29.887419 45.395626 24.270559 45.395626 Z M 29.238705 29.032904 L 29.238705 9.848465 C 29.238705 7.203419 27.014387 4.764107 24.270559 4.764107 C 21.526726 4.764107 19.302408 7.203419 19.302408 9.848465 L 19.302408 29.032904 C 17.49353 30.435083 16.334713 32.584839 16.334713 34.996574 C 16.334713 39.221642 19.887714 42.646736 24.270559 42.646736 C 28.653404 42.646736 32.206402 39.221642 32.206402 34.996574 C 32.206402 32.584839 31.04759 30.435083 29.238705 29.032904 Z M 24.270559 40.940872 C 21.206053 40.940872 18.721781 38.546032 18.721781 35.591843 C 18.721781 33.593399 19.859447 31.852127 21.543728 30.933844 L 21.543728 13.720024 L 26.997389 13.720024 L 26.997389 30.933844 C 28.681673 31.852127 29.819334 33.593399 29.819334 35.591843 C 29.819334 38.546032 27.335064 40.940872 24.270559 40.940872 Z"/>
    </g>
</svg>
