<?xml version="1.0" encoding="UTF-8"?>
<!-- Generated by Pixelmator Pro 3.6.18 -->
<svg width="48" height="48" viewBox="0 0 48 48" xmlns="http://www.w3.org/2000/svg">
    <g id="New">
        <path id="Magnet-field-copy-2" fill="#000000" fill-rule="evenodd" stroke="none" d="M 14.770392 3.817181 L 33.70319 3.817181 C 36.712265 3.817181 37.837448 5.598476 38.240761 6.660439 C 38.643265 7.722397 39.029381 9.922283 37.085114 12.731441 L 29.654228 23.470699 L 29.654228 23.923391 L 37.085114 34.662476 C 39.029381 37.471802 38.643265 39.671692 38.240761 40.73365 C 37.837448 41.795609 36.712265 43.576908 33.70319 43.576908 L 14.770392 43.576908 C 11.761322 43.576908 10.635458 41.795609 10.232958 40.73365 C 9.829645 39.673347 9.444205 37.471802 11.388471 34.662476 L 18.819355 23.923391 L 18.819355 23.470699 L 11.388471 12.731441 C 9.444205 9.922283 9.829645 7.722397 10.232958 6.660439 C 10.635458 5.598476 11.760644 3.817181 14.770392 3.817181 Z M 35.620247 11.216957 C 37.543934 8.436768 36.681934 6.16256 33.70319 6.16256 L 14.770392 6.16256 C 11.791649 6.16256 10.929648 8.436768 12.853337 11.216957 L 20.73844 22.610838 L 20.73844 24.783251 L 12.853337 36.177124 C 10.929648 38.957321 11.791649 41.231525 14.770392 41.231525 L 33.70319 41.231525 C 36.681934 41.231525 37.543934 38.957321 35.620247 36.177124 L 27.735146 24.783251 L 27.735146 22.610838 L 35.620247 11.216957 Z M 32.584641 35.663033 L 29.936876 31.837214 C 29.936876 31.837214 25.992022 26.96018 24.667465 22.918854 C 23.846935 20.415358 20.688375 28.728226 20.688375 28.728226 L 15.888943 35.663033 C 14.47823 37.701374 15.110208 39.369461 17.295052 39.369461 L 31.17853 39.369461 C 33.363377 39.369461 33.995354 37.701374 32.584641 35.663033 Z"/>
    </g>
</svg>
