<?xml version="1.0" encoding="UTF-8"?>
<!-- Generated by Pixelmator Pro 3.6.18 -->
<svg width="48" height="48" viewBox="0 0 48 48" xmlns="http://www.w3.org/2000/svg">
    <g id="New">
        <path id="Viscosity-Dynamic" fill="#0f0707" fill-rule="evenodd" stroke="none" d="M 34.775692 42.768032 C 35.510185 42.867287 36.641701 42.966545 38.209946 42.966545 C 40.830296 42.966545 42.994072 42.410713 44.403507 41.239494 C 45.673981 40.147678 46.606979 38.380928 46.606979 35.820129 C 46.606979 33.45784 45.733532 31.810194 44.343948 30.777933 C 43.073475 29.825077 41.405979 29.34865 38.845181 29.34865 C 37.336494 29.34865 35.88736 29.467756 34.775692 29.646418 Z M 38.051689 31.790342 C 38.309757 31.730789 38.766331 31.671236 39.421421 31.671236 C 42.041771 31.671236 43.048874 33.140221 43.048874 35.919384 C 43.048874 39.115417 41.863113 40.624107 39.103802 40.604256 C 38.746479 40.604256 38.309757 40.604256 38.051689 40.544704 Z M 19.142803 23.275864 C 19.142803 28.448277 24.94031 33.211636 24.94031 36.063404 C 24.94031 39.782169 21.925657 42.796825 18.206896 42.796825 C 14.488135 42.796825 11.47348 39.782169 11.47348 36.063404 C 11.47348 33.211636 17.270988 28.396551 17.270988 23.27586 C 17.270988 18.155172 15.799456 9.267654 15.799456 8.248047 C 15.799456 8.219688 15.799946 8.191444 15.800919 8.163322 L 13.866795 8.163322 L 9.931034 4.965519 L 36.413792 4.965519 L 32.478031 8.163322 L 20.612875 8.163322 C 20.613848 8.191444 20.614338 8.219688 20.614338 8.248047 C 20.614338 9.267654 19.142803 18.103449 19.142803 23.275864 Z M 31.560719 22.885708 C 31.560719 21.465855 28.837725 18.287153 28.837725 14.799915 L 27.57575 14.799915 C 27.57575 18.252281 24.855793 21.465855 24.855793 22.885708 C 24.855793 24.737223 26.356743 26.238173 28.208256 26.238173 C 30.059769 26.238173 31.560719 24.737223 31.560719 22.885708 Z"/>
    </g>
</svg>
