<?xml version="1.0" encoding="UTF-8"?>
<!-- Generated by Pixelmator Pro 3.6.18 -->
<svg width="48" height="48" viewBox="0 0 48 48" xmlns="http://www.w3.org/2000/svg">
    <g id="New">
        <path id="Volume" fill="#000000" fill-rule="evenodd" stroke="none" d="M 24.393488 42.161575 C 32.380875 42.161575 38.855942 40.00322 38.855942 37.340755 L 38.855942 10.022785 C 38.855942 7.360325 32.380875 5.201969 24.393488 5.201969 C 16.406099 5.201969 9.931034 7.360325 9.931034 10.022785 L 9.931034 37.340755 C 9.931034 40.00322 16.406099 42.161575 24.393488 42.161575 Z M 24.393488 36.560246 C 18.132563 36.560246 13.057076 34.868416 13.057076 32.781445 L 13.057076 32.519939 L 11.537973 32.519939 L 11.537973 30.912998 L 13.057076 30.912998 L 13.057076 29.306059 L 11.537973 29.306059 L 11.537973 27.699121 L 13.057076 27.699121 L 13.057076 26.09218 L 11.537973 26.09218 L 11.537973 24.485241 L 13.057076 24.485241 L 13.057076 22.878304 L 11.537973 22.878304 L 11.537973 21.271362 L 13.057076 21.271362 L 13.057076 19.664423 L 11.537973 19.664423 L 11.537973 18.057489 L 13.057076 18.057489 L 13.057076 16.450542 L 11.537973 16.450542 L 11.537973 14.843605 L 13.057076 14.843605 L 13.057076 11.368221 C 13.057076 9.281246 18.132563 7.58942 24.393488 7.58942 C 30.654413 7.58942 35.729897 9.281246 35.729897 11.368221 L 35.729897 32.781445 C 35.729897 34.868416 30.654413 36.560246 24.393488 36.560246 Z M 33.641594 13.729324 C 31.134624 14.425098 27.910677 14.843605 24.393488 14.843605 C 20.876297 14.843605 17.652349 14.425098 15.14538 13.729324 C 14.908886 14.007519 14.782322 14.301113 14.782322 14.604561 L 14.782322 32.758987 C 14.782322 34.528351 19.08539 35.962708 24.393488 35.962708 C 29.701582 35.962708 34.004654 34.528351 34.004654 32.758987 L 34.004654 14.604561 C 34.004654 14.301113 33.87809 14.007519 33.641594 13.729324 Z M 34.065254 10.851368 C 34.065254 9.529884 29.735056 8.458611 24.393488 8.458611 C 19.05192 8.458611 14.721723 9.529884 14.721723 10.851368 C 14.721723 12.172848 19.05192 13.244118 24.393488 13.244118 C 29.735056 13.244118 34.065254 12.172848 34.065254 10.851368 Z"/>
    </g>
</svg>
