<?xml version="1.0" encoding="UTF-8"?>
<!-- Generated by Pixelmator Pro 3.6.18 -->
<svg width="48" height="48" viewBox="0 0 48 48" xmlns="http://www.w3.org/2000/svg">
    <g id="New">
        <path id="Weight" fill="#000000" fill-rule="evenodd" stroke="none" d="M 42.903744 42.591919 L 3.802603 42.591919 L 9.729198 15.260181 L 20.257475 15.260181 C 18.753401 14.255905 17.761164 12.545441 17.761164 10.601208 C 17.761164 7.507866 20.268837 5.000221 23.362146 5.000221 C 26.455484 5.000221 28.963121 7.507866 28.963121 10.601208 C 28.963121 12.545441 27.970901 14.255905 26.466825 15.260181 L 36.984589 15.260181 Z M 26.921755 10.598213 C 26.921755 8.632942 25.328609 7.039783 23.363338 7.039783 C 21.398067 7.039783 19.804893 8.632942 19.804893 10.598213 C 19.804893 12.563488 21.398067 14.156643 23.363338 14.156643 C 25.328609 14.156643 26.921755 12.563488 26.921755 10.598213 Z M 22.441551 25.013527 L 28.328152 25.013527 L 28.328152 22.093538 L 19.965454 22.093538 L 18.984316 30.059158 C 19.591698 29.965715 20.175652 29.918991 21.016623 29.918991 C 24.053371 29.918991 25.291405 30.876753 25.291405 32.441833 C 25.291405 34.053635 23.726315 34.754448 22.25469 34.754448 C 20.876432 34.754448 19.498236 34.333961 18.844185 34.006958 L 18.190105 36.669914 C 19.03105 37.113739 20.572773 37.534229 22.418186 37.534229 C 26.506105 37.534229 28.935501 35.034775 28.935501 32.208275 C 28.935501 30.432924 28.234724 29.171507 27.090092 28.400633 C 26.038918 27.629763 24.543892 27.302761 23.095602 27.302761 C 22.721846 27.302761 22.441551 27.302761 22.114496 27.349482 Z"/>
    </g>
</svg>
